<svg xmlns="http://www.w3.org/2000/svg" version="1.0" viewBox="0 0 1024 1024"><g fill="maroon" stroke-width="0"><path d="M0 512v512h1024V0H0zm892.7-243.4c-.3.3-1.2.4-1.9.1-.8-.3-.5-.6.6-.6 1.1-.1 1.7.2 1.3.5m8.1 3c3.4 2.3 5.8 8.1 7.1 16.4 1.3 8.6 11 61.5 14.6 79.9 3 15.1 3.1 18.5.5 22.1-3 4.2-6.1 4.9-23.5 5.3-15.6.4-16.4.6-31 5-32.5 9.8-161.4 47.4-179.6 52.3-1.3.3-1.8-1-2.9-6.8-2.5-14.6-11.4-40.4-12.9-37.9-.4.6-.7-.5-.7-2.4 0-3.8 1-4.3 11.1-6.1 2.2-.3 19.1-3.9 37.5-7.9s45.7-9.9 60.5-13c14.9-3.1 34-7.1 42.5-9 8.5-1.8 25.3-5.2 37.3-7.6 12-2.3 22.5-4.8 23.2-5.3 1.4-1.1.7-6.2-4.8-34.1-1.3-6.9-1.4-7-4.3-6.7-1.6.2-17.7 3-35.9 6.3-32.5 5.9-51.5 9.4-121 22.4-19.2 3.7-43.5 8.1-53.9 10l-19 3.4-8.6-8.2c-18.1-17.3-36.2-31.1-39.4-30.2-1.5.5-1.7.4-.7-.3 1.1-.8.9-1.2-.9-2.2-1.2-.6-2-1.3-1.8-1.6.5-.4 8.9-1.6 65.3-9.4 24.2-3.3 48.5-6.7 54-7.5s28-3.9 50-7C861 277.9 874.4 275.9 883 273c9.8-3.2 14.6-3.6 17.8-1.4m-20.1 1c-.3.3-1.2.4-1.9.1-.8-.3-.5-.6.6-.6 1.1-.1 1.7.2 1.3.5m-24 4c-.3.3-1.2.4-1.9.1-.8-.3-.5-.6.6-.6 1.1-.1 1.7.2 1.3.5m-25.4 4.1c-.7.2-2.1.2-3 0-1-.3-.4-.5 1.2-.5 1.7 0 2.4.2 1.8.5m-14.6 1.9c-.3.3-1.2.4-1.9.1-.8-.3-.5-.6.6-.6 1.1-.1 1.7.2 1.3.5m-16 2c-.3.3-1.2.4-1.9.1-.8-.3-.5-.6.6-.6 1.1-.1 1.7.2 1.3.5m-26.9 4.1c-1 .2-2.6.2-3.5 0-1-.3-.2-.5 1.7-.5s2.7.2 1.8.5m-14.5 2c-.7.2-2.1.2-3 0-1-.3-.4-.5 1.2-.5 1.7 0 2.4.2 1.8.5m-16.6 1.9c-.3.3-1.2.4-1.9.1-.8-.3-.5-.6.6-.6 1.1-.1 1.7.2 1.3.5m-11 2c-.3.3-1.2.4-1.9.1-.8-.3-.5-.6.6-.6 1.1-.1 1.7.2 1.3.5m-15.4 2.1c-.7.2-2.1.2-3 0-1-.3-.4-.5 1.2-.5 1.7 0 2.4.2 1.8.5m195.4 4c-.3 1-.5.2-.5-1.7s.2-2.7.5-1.8c.2 1 .2 2.6 0 3.5m-223.9 0c-1 .2-2.6.2-3.5 0-1-.3-.2-.5 1.7-.5s2.7.2 1.8.5m-202 4c-1.6.2-4 .2-5.5 0-1.6-.2-.3-.4 2.7-.4s4.3.2 2.8.4m34 0c-1.5.2-4.2.2-6 0s-.6-.4 2.7-.4 4.8.2 3.3.4m140 0c-1 .2-2.8.2-4 0-1.3-.2-.5-.4 1.7-.4 2.2-.1 3.2.1 2.3.4m-133.1 2.9c12.5 1.8 25.4 5.3 37.3 9.8 4.9 2 9.8 3.3 10.8 3 1.1-.4 1.3-.3.5.3-.9.6.7 1.9 5 4.3 17 9.2 34.7 23.5 48.7 39.2 5.1 5.7 9.5 10.2 9.9 10.1s.8.3.8 1 2.5 4.9 5.5 9.4c26.6 39.5 36.2 94.5 24.7 141.6-8.1 32.9-23.9 62.1-46.6 85.8-4.6 4.7-7.9 9-7.5 9.4.4.5.2.5-.4.2s-5.2 2.6-10.1 6.6c-53.8 42.9-130.9 49-192.6 15.3-26.1-14.2-54.2-41.8-70-68.8-3.5-6-5.4-8.3-6-7.5s-.7.6-.3-.5c.3-1-.9-5-2.6-9-10.7-25.2-14.9-45.6-14.9-72.4 0-18.4 1.3-29.1 5.7-45.3 6.4-23.6 17.7-46.9 31.6-64.9 2.7-3.4 4.6-6.8 4.2-7.4s-.3-.8.3-.5c1.3.8 14.5-13.7 13.5-14.8-.4-.5-.1-.5.6-.1.8.5 2.9-.7 5.7-3.3 5.2-4.8 19.7-15.6 23.7-17.7 1.7-.9 2.6-2 2.2-2.6-.4-.7-.3-.8.4-.4.6.4 5.5-1.5 10.9-4.2 31.4-15.7 72.6-22 109-16.6m7.2-1c1 .9-3.5.3-4.9-.6-1.1-.8-.7-.9 1.5-.4 1.7.4 3.2.8 3.4 1m109.9.1c-1 .2-2.6.2-3.5 0-1-.3-.2-.5 1.7-.5s2.7.2 1.8.5m-14.5 2c-.7.2-2.1.2-3 0-1-.3-.4-.5 1.2-.5 1.7 0 2.4.2 1.8.5m-14 2c-.7.2-1.9.2-2.5 0-.7-.3-.2-.5 1.2-.5s1.9.2 1.3.5m-7.6.9c-.3.3-1.2.4-1.9.1-.8-.3-.5-.6.6-.6 1.1-.1 1.7.2 1.3.5m268.6 6.1c-.7.2-1.9.2-2.5 0-.7-.3-.2-.5 1.2-.5s1.9.2 1.3.5m-11.6 1.9c-.3.3-1.2.4-1.9.1-.8-.3-.5-.6.6-.6 1.1-.1 1.7.2 1.3.5M418.5 322c-.3.5-1.2 1-1.8 1-.7 0-.6-.4.3-1 1.9-1.2 2.3-1.2 1.5 0m-56.2 8.7c-.7.2-1.9.2-2.5 0-.7-.3-.2-.5 1.2-.5s1.9.2 1.3.5m.3 11.4c-37.6 39.2-58.2 85.8-60.5 136.9l-.6 13.5-13.5-.1c-10.9 0-14.8-.4-20.6-2.2-13.8-4.2-26.2-12.3-33.4-21.8-2.3-2.9-4.7-5.1-5.3-4.7-.6.3-.7.1-.3-.5 1-1.7-2.6-7.5-3.7-5.9-.5.8-.6.5-.3-.8 1-3.7-.4-4.4-6.9-3.3-16.2 2.6-29.6-2.9-35.7-14.7-3-5.6-3.6-16.7-1.3-23.4 3.5-10.7 15.6-19.3 29.8-21.3 11.1-1.5 11.7-1.7 11.7-3.6 0-1 1.6-5.1 3.6-9.2 10.8-22.7 27.5-36.1 49.4-39.8 3.6-.6 18.2-2.3 32.5-3.7s34.3-3.4 44.5-4.4 19.1-1.9 19.9-2c.7 0-3.5 4.9-9.3 11m437.1-10.5c-.3.3-1.2.4-1.9.1-.8-.3-.5-.6.6-.6 1.1-.1 1.7.2 1.3.5m-458.4 1.1c-.7.2-1.9.2-2.5 0-.7-.3-.2-.5 1.2-.5s1.9.2 1.3.5m447.5 1c-1 .2-2.6.2-3.5 0-1-.3-.2-.5 1.7-.5s2.7.2 1.8.5m91.9 3.5c-.3.7-.5.2-.5-1.2s.2-1.9.5-1.3c.2.7.2 1.9 0 2.5m-103.4-1.5c-.7.2-2.1.2-3 0-1-.3-.4-.5 1.2-.5 1.7 0 2.4.2 1.8.5m-474.5 1c-1 .2-2.8.2-4 0-1.3-.2-.5-.4 1.7-.4 2.2-.1 3.2.1 2.3.4m-20 2c-1 .2-2.8.2-4 0-1.3-.2-.5-.4 1.7-.4 2.2-.1 3.2.1 2.3.4m-13.1 1.9c-.3.3-1.2.4-1.9.1-.8-.3-.5-.6.6-.6 1.1-.1 1.7.2 1.3.5m476.6 1.1c-.7.2-1.9.2-2.5 0-.7-.3-.2-.5 1.2-.5s1.9.2 1.3.5m-10.6 1.9c-.3.3-1.2.4-1.9.1-.8-.3-.5-.6.6-.6 1.1-.1 1.7.2 1.3.5m-43.4 8.1c-.7.2-2.1.2-3 0-1-.3-.4-.5 1.2-.5 1.7 0 2.4.2 1.8.5m229.4 2.5c-.3.8-.6.5-.6-.6-.1-1.1.2-1.7.5-1.3.3.3.4 1.2.1 1.9m-252 1.4c-.3.3-1.2.4-1.9.1-.8-.3-.5-.6.6-.6 1.1-.1 1.7.2 1.3.5m211.3.4c0 .5-.8 1-1.7 1-1.5 0-1.6-.2-.3-1 1.9-1.2 2-1.2 2 0m-232.7 3.7c-.7.2-1.9.2-2.5 0-.7-.3-.2-.5 1.2-.5s1.9.2 1.3.5m201.4 2.9c-.3.3-1.2.4-1.9.1-.8-.3-.5-.6.6-.6 1.1-.1 1.7.2 1.3.5m-27.4 6.1c-.7.2-1.9.2-2.5 0-.7-.3-.2-.5 1.2-.5s1.9.2 1.3.5m-8.8 1.3c-.3.5-1.4 1-2.3.9-1.4 0-1.3-.2.3-.9 2.7-1.1 2.7-1.1 2 0m-11.2 2.7c-.7.2-1.9.2-2.5 0-.7-.3-.2-.5 1.2-.5s1.9.2 1.3.5m-9.6 1.9c-.3.3-1.2.4-1.9.1-.8-.3-.5-.6.6-.6 1.1-.1 1.7.2 1.3.5m-9 2c-.3.3-1.2.4-1.9.1-.8-.3-.5-.6.6-.6 1.1-.1 1.7.2 1.3.5m-38.4 8.1c-.7.2-1.9.2-2.5 0-.7-.3-.2-.5 1.2-.5s1.9.2 1.3.5m-18.6 3.9c-.3.3-1.2.4-1.9.1-.8-.3-.5-.6.6-.6 1.1-.1 1.7.2 1.3.5M209 392c-.8.5-2.2.9-3 .9-1 0-.8-.3.5-.9 2.7-1.2 4.3-1.2 2.5 0m678.7 5.6c-.3.3-1.2.4-1.9.1-.8-.3-.5-.6.6-.6 1.1-.1 1.7.2 1.3.5m-8.4 2.1c-.7.2-1.9.2-2.5 0-.7-.3-.2-.5 1.2-.5s1.9.2 1.3.5M831 413.4c0 .2-.7.7-1.6 1-.8.3-1.2.2-.9-.4.6-1 2.5-1.4 2.5-.6m-6.3 2.2c-.3.3-1.2.4-1.9.1-.8-.3-.5-.6.6-.6 1.1-.1 1.7.2 1.3.5M796 424c-.8.5-1.9 1-2.5 1-.5 0-.3-.5.5-1s2-1 2.5-1c.6 0 .3.5-.5 1m-619.3 3.2c-.3.7-.5.2-.5-1.2s.2-1.9.5-1.3c.2.7.2 1.9 0 2.5m593 4.4c-.3.3-1.2.4-1.9.1-.8-.3-.5-.6.6-.6 1.1-.1 1.7.2 1.3.5m-447 10.6c-.3.8-.6.5-.6-.6-.1-1.1.2-1.7.5-1.3.3.3.4 1.2.1 1.9m349 0c-.3.8-.6.5-.6-.6-.1-1.1.2-1.7.5-1.3.3.3.4 1.2.1 1.9m43 5.4c-.3.3-1.2.4-1.9.1-.8-.3-.5-.6.6-.6 1.1-.1 1.7.2 1.3.5m-394 2.6c-.3.8-.6.5-.6-.6-.1-1.1.2-1.7.5-1.3.3.3.4 1.2.1 1.9m-116.4 5.5c-.7.2-1.9.2-2.5 0-.7-.3-.2-.5 1.2-.5s1.9.2 1.3.5m10 0c-.7.2-1.9.2-2.5 0-.7-.3-.2-.5 1.2-.5s1.9.2 1.3.5m89.4 31.5c-.2 2.9-.3.6-.3-5.2s.1-8.1.3-5.3c.2 2.9.2 7.7 0 10.5m-29.4 6.5c-.7.2-1.9.2-2.5 0-.7-.3-.2-.5 1.2-.5s1.9.2 1.3.5m46.4 30c-.3 1-.5.4-.5-1.2 0-1.7.2-2.4.5-1.8.2.7.2 2.1 0 3m351 4.5c-.3.8-.6.5-.6-.6-.1-1.1.2-1.7.5-1.3.3.3.4 1.2.1 1.9M322.9 531c0 1-.3.8-.9-.5-1.2-2.7-1.2-4.3 0-2.5.5.8.9 2.2.9 3m-13.7 7.1c5 17.8 14.9 39 26.1 56l1.8 2.7-6 4.7c-3.3 2.6-5.8 5.2-5.4 5.8.3.6.1.7-.5.3s-6.7 3.3-13.6 8.3c-6.9 4.9-17.4 12-23.5 15.7-7.2 4.6-10.5 7.2-9.8 7.7.8.6.5.7-.6.3-1.1-.3-5.1 1.3-10.5 4.3-4.8 2.7-11.3 6.2-14.4 7.7-4 2-5.4 3.1-4.5 3.7q1.2.9-.6.3c-1.1-.3-4.8.7-8.5 2.3-32.6 14.3-63.1 22.5-93.5 25.2-15 1.3-17.9.7-23.3-4.6-3.8-3.9-10.4-14.9-10.4-17.4 0-2.1 4.8-4 14-5.5 9.9-1.6 24-5.7 37.5-10.9 6.5-2.5 7.6-3.2 6-3.9-1.6-.6-1.4-.7.7-.3s6.2-1.2 17-6.8c15.6-7.9 34.1-19.4 33.3-20.7-.3-.4.3-.7 1.3-.6.9 0 1.6-.5 1.4-1.2-.1-.8.1-1.1.6-.8 1.2.7 13.4-8.2 12.7-9.3-.2-.5.1-.8.9-.7 5.5.5 68.4-64.7 66-68.5-.4-.7-.3-.9.4-.5.6.3 1.4.1 1.7-.5 1-1.6 1.4-.8 3.7 7.2m.5-4.9c-.3.8-.6.5-.6-.6-.1-1.1.2-1.7.5-1.3.3.3.4 1.2.1 1.9m10 29c-.3.8-.6.5-.6-.6-.1-1.1.2-1.7.5-1.3.3.3.4 1.2.1 1.9m36.4 34.5c1.3 1.6 1.2 1.7-.3.4-1.7-1.3-2.2-2.1-1.4-2.1.2 0 1 .8 1.7 1.7M283 637.4c0 .2-.7.7-1.6 1-.8.3-1.2.2-.9-.4.6-1 2.5-1.4 2.5-.6m180.7 26.2c-.3.3-1.2.4-1.9.1-.8-.3-.5-.6.6-.6 1.1-.1 1.7.2 1.3.5m30 4c-.3.3-1.2.4-1.9.1-.8-.3-.5-.6.6-.6 1.1-.1 1.7.2 1.3.5m4 0c-.3.3-1.2.4-1.9.1-.8-.3-.5-.6.6-.6 1.1-.1 1.7.2 1.3.5m4.6.1c-.7.2-1.9.2-2.5 0-.7-.3-.2-.5 1.2-.5s1.9.2 1.3.5m-320.6 11.9c-.3.3-1.2.4-1.9.1-.8-.3-.5-.6.6-.6 1.1-.1 1.7.2 1.3.5m-10 2c-.3.3-1.2.4-1.9.1-.8-.3-.5-.6.6-.6 1.1-.1 1.7.2 1.3.5m-12 2c-.3.3-1.2.4-1.9.1-.8-.3-.5-.6.6-.6 1.1-.1 1.7.2 1.3.5m-20.9 2.1c-1 .2-2.8.2-4 0-1.3-.2-.5-.4 1.7-.4 2.2-.1 3.2.1 2.3.4"/><path d="M469 343.7c-22 3.3-44.6 14.3-66.2 32.1-6.6 5.4-7.9 7.1-5.8 7.3.6.1 1.6.2 2.3.3.6.1 1.1.7 1 1.3-.3 1.7 45.6 40.5 46.9 39.7.6-.4.8-.3.5.3-.9 1.4 10 10.6 11.5 9.7.6-.4.8-.3.5.3-.4.6.4 2 1.7 3.2l2.3 2.1 5.9-3.5c3.2-2 7.6-4.1 9.6-4.7l3.8-1.1V342l-2.2.1c-1.3.1-6.6.8-11.8 1.6m11.7 3c-.3 1-.5.4-.5-1.2 0-1.7.2-2.4.5-1.8.2.7.2 2.1 0 3m-11.4-1c-.7.2-1.9.2-2.5 0-.7-.3-.2-.5 1.2-.5s1.9.2 1.3.5m11.4 6.5c-.3.7-.5.2-.5-1.2s.2-1.9.5-1.3c.2.7.2 1.9 0 2.5m31.3 34.2v44.3l5.6 2.2c3.2 1.2 7.5 3.4 9.6 5l4 2.9 21.6-18.6c35.8-30.7 42.2-36.4 41.5-37.5-.3-.6-.2-.7.3-.4.6.3 1.6.1 2.4-.4 1.2-.8.3-2-4.4-6.2-15.2-13.5-34.6-24.9-51.6-30.2-6.7-2.1-24.1-5.5-28.2-5.5-.5 0-.8 20-.8 44.4m14.3-40.7c-.7.2-1.9.2-2.5 0-.7-.3-.2-.5 1.2-.5s1.9.2 1.3.5m29.7 71.7c0 .2-.8 1-1.7 1.7-1.6 1.3-1.7 1.2-.4-.4s2.1-2.1 2.1-1.3m-181.9-8.1c-16.2 28.9-22.3 54.8-20 85.1.9 12.6 2 16.2 4.7 15.1.9-.4 18.8-6 39.7-12.5s39.3-12.3 40.8-12.9c2.4-.9 2.7-1.6 2.7-5.8.1-2.7.9-7.2 1.9-10.1l1.8-5.3-5.8-5c-3.5-3-6.3-4.8-7-4.3q-1.05.6-.6-.3c.9-1.5-4.9-6.7-6.4-5.8-.7.5-1 .4-.6-.2.9-1.4-2.9-4.7-4.4-3.7-.7.4-1 .3-.5-.4.8-1.4-12.2-12.5-13.6-11.6-.6.4-.8.2-.5-.3.5-.9-26.7-25.1-29.1-26-.4-.2-1.8 1.6-3.1 4m-14.4 39.9c-.3.8-.6.5-.6-.6-.1-1.1.2-1.7.5-1.3.3.3.4 1.2.1 1.9m-4 32c-.3.8-.6.5-.6-.6-.1-1.1.2-1.7.5-1.3.3.3.4 1.2.1 1.9m84.3.8c0 .5-.5 1-1.1 1-.5 0-.7-.5-.4-1 .3-.6.8-1 1.1-1 .2 0 .4.4.4 1m-44.3 14.6c-.3.3-1.2.4-1.9.1-.8-.3-.5-.6.6-.6 1.1-.1 1.7.2 1.3.5M359 507.4c0 .3-.4.8-1 1.1-.5.3-1 .1-1-.4 0-.6.5-1.1 1-1.1.6 0 1 .2 1 .4m250.9-96.5c-3 2.7-17.5 15.3-32.4 28.1-14.8 12.8-27.4 23.6-27.8 24-.5.4-.2 2.8.7 5.2.8 2.5 1.8 7.2 2.1 10.5l.7 6 6.7 2c3.6 1.1 22.4 7.3 41.8 13.7s35.6 11.6 36.1 11.6c1.5 0 3.5-15.5 3.4-27 0-21-5.2-45.1-12.9-60.5-4-8-10.7-18.4-11.9-18.5-.5 0-3.5 2.2-6.5 4.9m-13.2 85.7c-.3.3-1.2.4-1.9.1-.8-.3-.5-.6.6-.6 1.1-.1 1.7.2 1.3.5m-109.4-38c-5.7 2.1-12.6 8.4-15.3 14.1-3.4 7.1-3.3 17.1.2 23.9 2.8 5.3 7.6 10.1 13.1 13.1 2.3 1.3 5.5 1.8 11.7 1.8 10.2 0 14.6-1.9 20.9-9.1 9.8-11.1 9.3-26.3-1.2-36.9-8.1-8-19-10.6-29.4-6.9m-1.3 2.8c0 .2-.7.7-1.6 1-.8.3-1.2.2-.9-.4.6-1 2.5-1.4 2.5-.6m-14.3 19.8c-.3.7-.5.2-.5-1.2s.2-1.9.5-1.3c.2.7.2 1.9 0 2.5m51-1c-.3.8-.6.5-.6-.6-.1-1.1.2-1.7.5-1.3.3.3.4 1.2.1 1.9m-51 8.5c-.3 1-.5.4-.5-1.2 0-1.7.2-2.4.5-1.8.2.7.2 2.1 0 3M432 517.1c-8.5 2.8-26.7 8.7-40.5 13.1-13.7 4.4-25.5 8.5-26.2 9-.9.7-.9 1.6-.1 3.4.9 1.8 1.4 2.1 2 1.2s.7-.5.3.9c-.6 2.1 2.4 9 8.3 19.1 1.9 3.3 2.7 4 3.4 3 .7-.9.8-.8.4.6-1.4 4.3 19.9 27.5 34.1 36.9 7.1 4.7 12.1 7.3 12.7 6.6.2-.2 4.7-10.5 10.1-22.9s12.3-28.4 15.5-35.5c3.1-7.2 6.7-15.5 8-18.7l2.3-5.6-3.6-3.1c-1.9-1.7-5-5.4-6.7-8.1-1.8-2.8-3.5-5-3.9-4.9-.3 0-7.6 2.3-16.1 5m113.3-4.5c.7.7-1.2 3.1-7.9 10.3l-5.1 5.4 2.3 5.1c1.2 2.8 9.1 20.8 17.4 40 8.3 19.3 15.6 35.8 16.1 36.8.9 1.6 1.5 1.4 7.7-2.4 10.2-6.3 16.6-11.9 15-13-1-.7-1-.9.2-.7.8.1 2 .1 2.7 0 1.9-.2 15.4-16.1 14.7-17.3-.4-.6-.3-.8.4-.4 2.4 1.5 22.3-33.5 20.3-35.7-.4-.4-19.6-7-42.5-14.7-23-7.7-41.6-13.7-41.3-13.4m41.4 15c-.3.3-1.2.4-1.9.1-.8-.3-.5-.6.6-.6 1.1-.1 1.7.2 1.3.5M572 608.4c0 .2-.7.7-1.6 1-.8.3-1.2.2-.9-.4.6-1 2.5-1.4 2.5-.6m-75.1-68.6-7.6.3-5.1 11.7c-2.7 6.4-8.6 20.1-13 30.3-5.3 12.1-7.9 19.4-7.6 21 .3 1.9.3 2-.4.6-.6-1.5-1.8.3-5.2 8.4-2.5 5.7-4.6 10.6-4.8 10.9-.1.4 5.7 2.2 13 4 22.9 5.7 44.9 5.3 67.8-1.2 4.1-1.2 7.6-2.2 7.7-2.3.2-.1-2.2-5.8-5.3-12.6-3-6.8-7.9-18-10.9-24.9-10.8-25.6-19.7-45.5-20.3-46-.4-.3-4.1-.4-8.3-.2m-.9 1.6c0 .2-1.3.6-3 .8-1.6.3-3 .1-3-.4 0-.4 1.4-.8 3-.8 1.7 0 3 .2 3 .4m9 .4c0 .4-1.6.6-3.5.4s-3.5-.6-3.5-.8 1.6-.4 3.5-.4 3.5.4 3.5.8m10 22.2c0 .5-.2 1-.4 1-.3 0-.8-.5-1.1-1-.3-.6-.1-1 .4-1 .6 0 1.1.4 1.1 1m-50.3 60.6c-.3.3-1.2.4-1.9.1-.8-.3-.5-.6.6-.6 1.1-.1 1.7.2 1.3.5"/></g><path fill="#BF0000" d="M890.8 268.7c.7.3 1.6.2 1.9-.1.4-.3-.2-.6-1.3-.5-1.1 0-1.4.3-.6.6m-12 4c.7.3 1.6.2 1.9-.1.4-.3-.2-.6-1.3-.5-1.1 0-1.4.3-.6.6m-24 4c.7.3 1.6.2 1.9-.1.4-.3-.2-.6-1.3-.5-1.1 0-1.4.3-.6.6m-26.5 4c.9.2 2.3.2 3 0 .6-.3-.1-.5-1.8-.5-1.6 0-2.2.2-1.2.5m-13.5 2c.7.3 1.6.2 1.9-.1.4-.3-.2-.6-1.3-.5-1.1 0-1.4.3-.6.6m-16 2c.7.3 1.6.2 1.9-.1.4-.3-.2-.6-1.3-.5-1.1 0-1.4.3-.6.6m-28.5 4c.9.2 2.5.2 3.5 0 .9-.3.1-.5-1.8-.5s-2.7.2-1.7.5m-14 2c.9.2 2.3.2 3 0 .6-.3-.1-.5-1.8-.5-1.6 0-2.2.2-1.2.5m-15.5 2c.7.3 1.6.2 1.9-.1.4-.3-.2-.6-1.3-.5-1.1 0-1.4.3-.6.6m-11 2c.7.3 1.6.2 1.9-.1.4-.3-.2-.6-1.3-.5-1.1 0-1.4.3-.6.6m-16.5 2c.9.2 2.3.2 3 0 .6-.3-.1-.5-1.8-.5-1.6 0-2.2.2-1.2.5m197.9 2.3c0 1.9.2 2.7.5 1.7.2-.9.2-2.5 0-3.5-.3-.9-.5-.1-.5 1.8m-226.9 1.7c.9.2 2.5.2 3.5 0 .9-.3.1-.5-1.8-.5s-2.7.2-1.7.5m-204 4c1.5.2 3.9.2 5.5 0 1.5-.2.2-.4-2.8-.4s-4.3.2-2.7.4m33.5 0c1.8.2 4.5.2 6 0s0-.4-3.3-.4-4.5.2-2.7.4m142 0c1.2.2 3 .2 4 0 .9-.3-.1-.5-2.3-.4-2.2 0-3 .2-1.7.4M529 306c.8.5 2.4 1 3.4 1 2.6 0 1.8-.6-1.9-1.4-2.2-.5-2.6-.4-1.5.4m111.3.7c.9.2 2.5.2 3.5 0 .9-.3.1-.5-1.8-.5s-2.7.2-1.7.5m-14 2c.9.2 2.3.2 3 0 .6-.3-.1-.5-1.8-.5-1.6 0-2.2.2-1.2.5m-13.5 2c.6.2 1.8.2 2.5 0 .6-.3.1-.5-1.3-.5s-1.9.2-1.2.5m-7 1c.7.3 1.6.2 1.9-.1.4-.3-.2-.6-1.3-.5-1.1 0-1.4.3-.6.6m268 6c.6.2 1.8.2 2.5 0 .6-.3.1-.5-1.3-.5s-1.9.2-1.2.5m-11 2c.7.3 1.6.2 1.9-.1.4-.3-.2-.6-1.3-.5-1.1 0-1.4.3-.6.6M417 322c-.9.6-1 1-.3 1 .6 0 1.5-.5 1.8-1 .8-1.2.4-1.2-1.5 0m-57.2 8.7c.6.2 1.8.2 2.5 0 .6-.3.1-.5-1.3-.5s-1.9.2-1.2.5m438 1c.7.3 1.6.2 1.9-.1.4-.3-.2-.6-1.3-.5-1.1 0-1.4.3-.6.6m-459 1c.6.2 1.8.2 2.5 0 .6-.3.1-.5-1.3-.5s-1.9.2-1.2.5m446.5 1c.9.2 2.5.2 3.5 0 .9-.3.1-.5-1.8-.5s-2.7.2-1.7.5m94.9 2.3c0 1.4.2 1.9.5 1.2.2-.6.2-1.8 0-2.5-.3-.6-.5-.1-.5 1.3m-105.9-.3c.9.2 2.3.2 3 0 .6-.3-.1-.5-1.8-.5-1.6 0-2.2.2-1.2.5m-475.5 1c1.2.2 3 .2 4 0 .9-.3-.1-.5-2.3-.4-2.2 0-3 .2-1.7.4m-20 2c1.2.2 3 .2 4 0 .9-.3-.1-.5-2.3-.4-2.2 0-3 .2-1.7.4m-11 2c.7.3 1.6.2 1.9-.1.4-.3-.2-.6-1.3-.5-1.1 0-1.4.3-.6.6m476 1c.6.2 1.8.2 2.5 0 .6-.3.1-.5-1.3-.5s-1.9.2-1.2.5m-263.6 3.8c0 1.6.2 2.2.5 1.2.2-.9.2-2.3 0-3-.3-.6-.5.1-.5 1.8m253.6-1.8c.7.3 1.6.2 1.9-.1.4-.3-.2-.6-1.3-.5-1.1 0-1.4.3-.6.6m-267 2c.6.2 1.8.2 2.5 0 .6-.3.1-.5-1.3-.5s-1.9.2-1.2.5m57 0c.6.2 1.8.2 2.5 0 .6-.3.1-.5-1.3-.5s-1.9.2-1.2.5m-43.6 5.3c0 1.4.2 1.9.5 1.2.2-.6.2-1.8 0-2.5-.3-.6-.5-.1-.5 1.3m209.1.7c.9.2 2.3.2 3 0 .6-.3-.1-.5-1.8-.5-1.6 0-2.2.2-1.2.5m231.8 1.9c0 1.1.3 1.4.6.6.3-.7.2-1.6-.1-1.9-.3-.4-.6.2-.5 1.3m-253.3 2.1c.7.3 1.6.2 1.9-.1.4-.3-.2-.6-1.3-.5-1.1 0-1.4.3-.6.6m211.2.3c-1.3.8-1.2 1 .3 1 .9 0 1.7-.5 1.7-1 0-1.2-.1-1.2-2 0m-233.2 3.7c.6.2 1.8.2 2.5 0 .6-.3.1-.5-1.3-.5s-1.9.2-1.2.5m202 3c.7.3 1.6.2 1.9-.1.4-.3-.2-.6-1.3-.5-1.1 0-1.4.3-.6.6m-28 6c.6.2 1.8.2 2.5 0 .6-.3.1-.5-1.3-.5s-1.9.2-1.2.5m-8.3 1.3c-1.6.7-1.7.9-.3.9.9.1 2-.4 2.3-.9.7-1.1.7-1.1-2 0m-11.7 2.7c.6.2 1.8.2 2.5 0 .6-.3.1-.5-1.3-.5s-1.9.2-1.2.5m-9 2c.7.3 1.6.2 1.9-.1.4-.3-.2-.6-1.3-.5-1.1 0-1.4.3-.6.6m-9 2c.7.3 1.6.2 1.9-.1.4-.3-.2-.6-1.3-.5-1.1 0-1.4.3-.6.6m-39 8c.6.2 1.8.2 2.5 0 .6-.3.1-.5-1.3-.5s-1.9.2-1.2.5m-18 4c.7.3 1.6.2 1.9-.1.4-.3-.2-.6-1.3-.5-1.1 0-1.4.3-.6.6M206.5 392c-1.3.6-1.5.9-.5.9.8 0 2.2-.4 3-.9 1.8-1.2.2-1.2-2.5 0m679.3 5.7c.7.3 1.6.2 1.9-.1.4-.3-.2-.6-1.3-.5-1.1 0-1.4.3-.6.6m-9 2c.6.2 1.8.2 2.5 0 .6-.3.1-.5-1.3-.5s-1.9.2-1.2.5M828.5 414c-.3.6.1.7.9.4 1.8-.7 2.1-1.4.7-1.4-.6 0-1.3.4-1.6 1m-5.7 1.7c.7.3 1.6.2 1.9-.1.4-.3-.2-.6-1.3-.5-1.1 0-1.4.3-.6.6m-268.9 3c-1.3 1.6-1.2 1.7.4.4.9-.7 1.7-1.5 1.7-1.7 0-.8-.8-.3-2.1 1.3M794 424c-.8.5-1 1-.5 1 .6 0 1.7-.5 2.5-1s1.1-1 .5-1c-.5 0-1.7.5-2.5 1m-617.8 2c0 1.4.2 1.9.5 1.2.2-.6.2-1.8 0-2.5-.3-.6-.5-.1-.5 1.3m591.6 5.7c.7.3 1.6.2 1.9-.1.4-.3-.2-.6-1.3-.5-1.1 0-1.4.3-.6.6m-445.7 9.9c0 1.1.3 1.4.6.6.3-.7.2-1.6-.1-1.9-.3-.4-.6.2-.5 1.3m349 0c0 1.1.3 1.4.6.6.3-.7.2-1.6-.1-1.9-.3-.4-.6.2-.5 1.3m-312 7c0 1.1.3 1.4.6.6.3-.7.2-1.6-.1-1.9-.3-.4-.6.2-.5 1.3m353.7-.9c.7.3 1.6.2 1.9-.1.4-.3-.2-.6-1.3-.5-1.1 0-1.4.3-.6.6m-392.7 1.9c0 1.1.3 1.4.6.6.3-.7.2-1.6-.1-1.9-.3-.4-.6.2-.5 1.3m-118.3 6.1c.6.2 1.8.2 2.5 0 .6-.3.1-.5-1.3-.5s-1.9.2-1.2.5m10 0c.6.2 1.8.2 2.5 0 .6-.3.1-.5-1.3-.5s-1.9.2-1.2.5m271.7 6.3c-.3.6.1.7.9.4 1.8-.7 2.1-1.4.7-1.4-.6 0-1.3.4-1.6 1m-164.4 4.6c0 1.1.3 1.4.6.6.3-.7.2-1.6-.1-1.9-.3-.4-.6.2-.5 1.3M303.4 482c0 5.8.1 8.1.3 5.2.2-2.8.2-7.6 0-10.5-.2-2.8-.3-.5-.3 5.3m167.8-2c0 1.4.2 1.9.5 1.2.2-.6.2-1.8 0-2.5-.3-.6-.5-.1-.5 1.3m50.9-.4c0 1.1.3 1.4.6.6.3-.7.2-1.6-.1-1.9-.3-.4-.6.2-.5 1.3m-167 1c0 1.1.3 1.4.6.6.3-.7.2-1.6-.1-1.9-.3-.4-.6.2-.5 1.3m83.4 1.4c-.3.5-.1 1 .4 1 .6 0 1.1-.5 1.1-1 0-.6-.2-1-.4-1-.3 0-.8.4-1.1 1m32.7 5.5c0 1.6.2 2.2.5 1.2.2-.9.2-2.3 0-3-.3-.6-.5.1-.5 1.8m-199.4 6.2c.6.2 1.8.2 2.5 0 .6-.3.1-.5-1.3-.5s-1.9.2-1.2.5m122 3c.7.3 1.6.2 1.9-.1.4-.3-.2-.6-1.3-.5-1.1 0-1.4.3-.6.6m201 0c.7.3 1.6.2 1.9-.1.4-.3-.2-.6-1.3-.5-1.1 0-1.4.3-.6.6m-275.7 7.9c0 1.1.3 1.4.6.6.3-.7.2-1.6-.1-1.9-.3-.4-.6.2-.5 1.3m37.9 3.5c0 .5.5.7 1 .4.6-.3 1-.8 1-1.1 0-.2-.4-.4-1-.4-.5 0-1 .5-1 1.1m-36.8 14.4c0 1.6.2 2.2.5 1.2.2-.9.2-2.3 0-3-.3-.6-.5.1-.5 1.8m350.9 5.1c0 1.1.3 1.4.6.6.3-.7.2-1.6-.1-1.9-.3-.4-.6.2-.5 1.3m-350-.1c.1 1.9 1.8 5.1 1.8 3.5 0-.8-.4-2.2-.9-3s-.9-1.1-.9-.5m263.7.2c.7.3 1.6.2 1.9-.1.4-.3-.2-.6-1.3-.5-1.1 0-1.4.3-.6.6m-275.7 4.9c0 1.1.3 1.4.6.6.3-.7.2-1.6-.1-1.9-.3-.4-.6.2-.5 1.3m180.9 9.2c0 .5 1.4.7 3 .4 1.7-.2 3-.6 3-.8s-1.3-.4-3-.4c-1.6 0-3 .4-3 .8m8-.4c0 .2 1.6.6 3.5.8s3.5 0 3.5-.4-1.6-.8-3.5-.8-3.5.2-3.5.4m-178.9 20.2c0 1.1.3 1.4.6.6.3-.7.2-1.6-.1-1.9-.3-.4-.6.2-.5 1.3m194.4 2.4c.3.5.8 1 1.1 1 .2 0 .4-.5.4-1 0-.6-.5-1-1.1-1-.5 0-.7.4-.4 1M354 595.4c0 .2.8 1 1.8 1.7 1.5 1.3 1.6 1.2.3-.4s-2.1-2.1-2.1-1.3m109.1 8.2c0 1.1.3 1.4.6.6.3-.7.2-1.6-.1-1.9-.3-.4-.6.2-.5 1.3m106.4 5.4c-.3.6.1.7.9.4 1.8-.7 2.1-1.4.7-1.4-.6 0-1.3.4-1.6 1m-106.7 15.7c.7.3 1.6.2 1.9-.1.4-.3-.2-.6-1.3-.5-1.1 0-1.4.3-.6.6M280.5 638c-.3.6.1.7.9.4 1.8-.7 2.1-1.4.7-1.4-.6 0-1.3.4-1.6 1m-111.7 2.7c.7.3 1.6.2 1.9-.1.4-.3-.2-.6-1.3-.5-1.1 0-1.4.3-.6.6m293 23c.7.3 1.6.2 1.9-.1.4-.3-.2-.6-1.3-.5-1.1 0-1.4.3-.6.6m30 4c.7.3 1.6.2 1.9-.1.4-.3-.2-.6-1.3-.5-1.1 0-1.4.3-.6.6m4 0c.7.3 1.6.2 1.9-.1.4-.3-.2-.6-1.3-.5-1.1 0-1.4.3-.6.6m4 0c.6.2 1.8.2 2.5 0 .6-.3.1-.5-1.3-.5s-1.9.2-1.2.5m-320 12c.7.3 1.6.2 1.9-.1.4-.3-.2-.6-1.3-.5-1.1 0-1.4.3-.6.6m-10 2c.7.3 1.6.2 1.9-.1.4-.3-.2-.6-1.3-.5-1.1 0-1.4.3-.6.6m-12 2c.7.3 1.6.2 1.9-.1.4-.3-.2-.6-1.3-.5-1.1 0-1.4.3-.6.6m-23 2c1.2.2 3 .2 4 0 .9-.3-.1-.5-2.3-.4-2.2 0-3 .2-1.7.4"/><path fill="#804000" d="M784.8 288.7c.7.3 1.6.2 1.9-.1.4-.3-.2-.6-1.3-.5-1.1 0-1.4.3-.6.6m-42 6c.7.3 1.6.2 1.9-.1.4-.3-.2-.6-1.3-.5-1.1 0-1.4.3-.6.6m-262 12c.7.3 1.6.2 1.9-.1.4-.3-.2-.6-1.3-.5-1.1 0-1.4.3-.6.6m37 0c.7.3 1.6.2 1.9-.1.4-.3-.2-.6-1.3-.5-1.1 0-1.4.3-.6.6m-158 26c.7.3 1.6.2 1.9-.1.4-.3-.2-.6-1.3-.5-1.1 0-1.4.3-.6.6m-42 4c.6.2 1.8.2 2.5 0 .6-.3.1-.5-1.3-.5s-1.9.2-1.2.5m-19 2c.7.3 1.6.2 1.9-.1.4-.3-.2-.6-1.3-.5-1.1 0-1.4.3-.6.6m-20 2c.7.3 1.6.2 1.9-.1.4-.3-.2-.6-1.3-.5-1.1 0-1.4.3-.6.6m349.2.7c0 .2.8 1 1.8 1.7 1.5 1.3 1.6 1.2.3-.4s-2.1-2.1-2.1-1.3m-116.5 47.1c0 23.6.1 33.2.2 21.2.2-12 .2-31.4 0-43-.1-11.7-.2-1.9-.2 21.8M613 348.4c0 .2.8 1 1.8 1.7 1.5 1.3 1.6 1.2.3-.4s-2.1-2.1-2.1-1.3m-241.5 8.8-4 4.3 4.3-4c2.3-2.1 4.2-4 4.2-4.2 0-.8-.9 0-4.5 3.9m253.5 3.2c0 .2.8 1 1.8 1.7 1.5 1.3 1.6 1.2.3-.4s-2.1-2.1-2.1-1.3m53.8 40.3c.7.3 1.6.2 1.9-.1.4-.3-.2-.6-1.3-.5-1.1 0-1.4.3-.6.6m-375.7 59.9c0 1.1.3 1.4.6.6.3-.7.2-1.6-.1-1.9-.3-.4-.6.2-.5 1.3m337.1 7.4c0 1.4.2 1.9.5 1.2.2-.6.2-1.8 0-2.5-.3-.6-.5-.1-.5 1.3m-287 9.5c0 1.6.2 2.2.5 1.2.2-.9.2-2.3 0-3-.3-.6-.5.1-.5 1.8m115.9 3.1c0 1.1.3 1.4.6.6.3-.7.2-1.6-.1-1.9-.3-.4-.6.2-.5 1.3m-167.9 5.1c-.1 3.8-.7 6.3-1.4 6.6q-1.5.6 0 .6c1.9.1 2.4-2 1.9-8l-.3-5.4zm339.9-4.1c0 1.1.3 1.4.6.6.3-.7.2-1.6-.1-1.9-.3-.4-.6.2-.5 1.3m-287.8 7.9c0 2.2.2 3 .4 1.7.2-1.2.2-3 0-4-.3-.9-.5.1-.4 2.3m287.8 1.1c0 1.1.3 1.4.6.6.3-.7.2-1.6-.1-1.9-.3-.4-.6.2-.5 1.3m-321 21c0 1.1.3 1.4.6.6.3-.7.2-1.6-.1-1.9-.3-.4-.6.2-.5 1.3m175.2 1.1c.9.2 2.5.2 3.5 0 .9-.3.1-.5-1.8-.5s-2.7.2-1.7.5m-5.5 27c.7.3 1.6.2 1.9-.1.4-.3-.2-.6-1.3-.5-1.1 0-1.4.3-.6.6m-221.4 33.5-1.9 2.3 2.3-1.9c2.1-1.8 2.7-2.6 1.9-2.6-.2 0-1.2 1-2.3 2.2m-4.5 4.5c-1.3 1.6-1.2 1.7.4.4.9-.7 1.7-1.5 1.7-1.7 0-.8-.8-.3-2.1 1.3m339 7c-1.3 1.6-1.2 1.7.4.4s2.1-2.1 1.3-2.1c-.2 0-1 .8-1.7 1.7m11 36c-1.3 1.6-1.2 1.7.4.4s2.1-2.1 1.3-2.1c-.2 0-1 .8-1.7 1.7m-118.6 45c1.5.2 3.7.2 5 0 1.2-.2 0-.4-2.8-.4-2.7 0-3.8.2-2.2.4m-362 18c1.5.2 3.7.2 5 0 1.2-.2 0-.4-2.8-.4-2.7 0-3.8.2-2.2.4"/><g fill="#BF8040" stroke-width="0"><path d="M889.7 272.3c.4.6 0 .8-1 .4-1-.3-1.7-.2-1.7.4s-.9.8-2 .4c-1.2-.4-2-.2-2 .5s-.7.9-1.6.6c-1-.4-1.3-.2-.8.6s-.1.9-2 .4c-2-.5-2.6-.4-2 .5.5.9-.1 1-2 .5-2-.5-2.6-.4-2 .5.5.9-.3 1.1-3 .6-2.5-.4-3.4-.2-3 .5.5.7-.8.9-4.2.5-3.6-.5-4.4-.4-2.9.3 1.5.8.9.9-2.7.6-2.8-.2-4.8.1-4.8.6 0 .6-1.4.8-3.6.3-2.7-.5-3.4-.3-2.8.6.5.9-.3 1-3.5.5-3.1-.5-4.1-.3-3.5.5.5.9-.4 1-3.7.5-2.7-.4-3.9-.3-3 .3s.1 1-2.7 1.3c-2.2.2-3.8 0-3.6-.4.3-.5 0-.8-.5-.8-.6 0-1.1.5-1.1 1.1q0 1.2-4.2.6c-3.2-.5-3.8-.4-2.3.4 1.5.7.8.8-2.7.5-2.8-.2-4.9.1-5.1.7-.2.7-3.2 1.1-7.4 1.2-4 0-6.9.4-6.5.9.3.5-1.3.7-3.6.3-2.4-.3-4.5-.1-4.8.5-.4.6-2.2.8-4 .5-2.1-.4-3.4-.2-3.4.5 0 .6-1.3.8-3.6.3-2.7-.5-3.4-.3-2.8.6.5.9-.3 1-3.5.5-3.1-.5-4.1-.3-3.5.5.5.9-.4 1-3.5.5s-4.1-.3-3.5.5c.5.9-.4 1.1-3.4.6-2.6-.3-4.2-.1-4.2.5s-1.5.8-3.7.4c-2.9-.5-3.5-.4-2.3.4 1.1.9.4 1-3.2.6-3.1-.4-4.8-.2-4.8.5s-1.5.9-4.2.5c-3.3-.5-3.8-.4-2.3.4s.7.9-3.3.6c-3.7-.4-5.1-.2-4.6.6s-.6.9-3.7.4c-3.3-.5-4-.4-2.9.5 1.1.8.3.9-3.3.5-3.5-.4-4.6-.3-4.1.6.5.8-.5.9-3.7.4-3.3-.5-4-.4-2.9.5 1.1.8.4.9-3.2.6-2.6-.2-4.5-.1-4.2.4.8 1.3-4.2 2.2-9.6 1.7-3.1-.3-4.7-.1-4.3.5s-1.1.8-4 .5c-3.1-.4-4.4-.2-4 .5s-.8.8-3.5.3c-2.6-.4-4.2-.2-4.2.4s-1.6.8-4.2.4c-3.4-.4-4-.3-2.8.6s.6 1.1-2.8.7c-2.8-.4-4-.2-3.5.6.4.7-.9.8-4.3.4-3.6-.5-4.5-.4-3.4.4s.2.9-3.2.4c-3.4-.4-4.8-.3-4.8.6 0 .8-1.2.9-3.7.5-2.9-.5-3.5-.4-2.3.4 1.2.9.4 1-3.2.7-2.7-.3-4.8 0-4.8.5 0 .6-1.8.7-4.2.4-3.3-.5-3.8-.4-2.3.4s.7.9-3.3.6c-3.7-.4-5.1-.2-4.6.6s-.5.9-3.4.5c-2.6-.3-4.2-.1-4.2.5s-.8.8-1.8.6c-1.1-.3-1.9 0-1.9.8s.2 1.2.5.9c.6-.5 6.1 2.3 7.9 4 .6.7.9 1.6.5 2-.4.5-.2.5.4.2.7-.4 2.5.3 4 1.5 3.7 2.7 5.4 4.4 3.5 3.3-1-.5-1.2-.4-.7.4.4.6 1.1.9 1.6.6.4-.3 1.6.3 2.7 1.3 1 .9 1.2 1.2.3.7-1.3-.9-1.3-.8-.1.7.7 1 1.7 1.6 2.1 1.3.3-.2 2.2 1 4.1 2.7 1.9 1.6 2.5 2.4 1.4 1.7-1.8-1.3-1.9-1.3-.6.3.7 1 1.7 1.5 2.2 1.3.4-.3 4.3 3 8.6 7.2 4.4 4.3 5.4 5.5 2.4 2.8l-5.6-5 5.4 5.7c4.2 4.4 6.1 5.7 9 6 2 .3 3.9 0 4.2-.5.4-.5 2-.7 3.5-.3 2.3.5 2.6.4 1.4-.4-1.2-.9-.7-1.1 2.1-.8 2.1.2 4.1-.2 4.9-1 .9-1 1.5-1.1 2.3-.3.6.6 1.6 1.1 2.1 1.1.6 0 .4-.5-.4-1.1-1.1-.8-.6-.9 2.3-.5 2.6.3 3.5.1 3.1-.6-.5-.8.4-.9 3-.5 2.5.4 3.4.2 3-.5-.5-.7.4-.9 2.5-.6 1.7.2 3.1 0 3.1-.5s1.5-.6 3.3-.2c2.5.5 2.9.4 1.7-.5s-.7-1.1 2.3-.6c2.2.3 3.7.1 3.7-.5 0-.7 1.2-.8 3.1-.4 2.3.5 3 .4 2.4-.5s.1-1 2.5-.5c2.5.5 3.1.4 2.5-.5-.6-1 0-1.2 2.4-.7 2.2.5 3 .3 2.5-.4-.5-.8.3-1 2.4-.7 1.7.2 2.9.1 2.6-.4-.3-.4 1.1-.6 3.1-.3 2.5.3 3.4.1 2.9-.7s.3-.9 2.4-.5 3.2.3 3.2-.5c0-.7 1.2-.8 3.3-.4 2.4.4 2.8.3 1.7-.5s-.6-.9 2.3-.4c2.5.4 3.7.2 3.7-.6 0-.7.9-.9 2.6-.5 1.8.5 2.4.3 1.8-.5-.5-.8.2-1 2.5-.7 1.7.2 3.1.1 3.1-.3 0-.3.9-.9 2-1.2s1.8-.1 1.4.4c-.3.5.2.9 1.1.9 1 0 1.3-.5.9-1.1-.5-.8.3-1 2.4-.7 1.9.3 2.9 0 2.5-.5-.4-.6.6-.8 2.5-.4 1.8.4 3.4.2 3.8-.4.3-.6 1.7-.8 3-.5 1.5.4 2.4.2 2.4-.5s1-.9 2.8-.5c2.1.5 2.4.4 1.2-.4-1.2-.9-.5-1 2.8-.7 2.7.3 4 .1 3.6-.5-.4-.7.5-.8 2.6-.3 2.5.5 3.1.4 2.5-.5-.6-1-.1-1.2 2.3-.7 2 .4 3.2.2 3.2-.4 0-.7 1.2-.8 3.3-.4 2.5.5 2.9.4 1.7-.5s-.7-1.1 2.3-.6c2.6.3 3.5.1 3.1-.6-.5-.8.5-.9 3.2-.5 2.9.5 3.5.4 2.4-.4s-.6-.9 2.3-.5c2.3.3 3.7.1 3.7-.6 0-.6 1.2-.8 3.3-.4 2.4.4 2.8.3 1.7-.5s-.6-.9 2.3-.5c2.2.3 3.7.1 3.7-.5 0-.7 1.3-.8 3.3-.4 2.5.5 2.9.4 1.7-.5s-.7-1.1 2.3-.6c2.2.3 3.7.1 3.7-.5 0-.7 1.3-.8 3.3-.4 2.5.5 2.9.4 1.7-.5s-.7-1.1 2.3-.6c2.6.3 3.5.1 3.1-.6-.5-.8.4-.9 2.9-.5 2.3.3 3.7.2 3.7-.5 0-.6 1-.8 2.5-.4s2.5.2 2.5-.5 1.2-.8 3.3-.4c2.5.5 2.9.4 1.7-.5s-.7-1.1 2.3-.6c2.2.3 3.7.1 3.7-.5 0-.7 1.3-.8 3.3-.4 2.5.5 2.9.4 1.7-.5s-.7-1 2.4-.6c4.7.6 5.8 2 5.3 6.3-.1 1.8.1 3.3.6 3.3s.6 1.1.3 2.5c-.4 1.5-.2 2.5.5 2.5s.8 1.1.4 3.1c-.6 2.4-.4 3 .5 2.4 1-.6 1.2-.1.7 2.3-.4 2-.2 3.2.4 3.2.7 0 .8 1.2.4 3.1-.5 2.4-.4 3 .5 2.4 1-.6 1.1.1.6 3-.6 2.8-.4 3.5.5 2.9.9-.5 1 .1.5 2.6-.7 3.9-1.9 4.9-5 4.3-1.8-.4-1.9-.3-.6.7 1.2.9.9 1.1-1.7.6-2.1-.3-3.3-.1-3.3.6s-1.2.8-3.2.4c-2.5-.4-2.9-.3-1.8.5 1.2.8.7.9-1.7.5-2-.3-3.3-.1-3.3.5 0 .7-1.2.8-3.2.4-2.6-.5-3-.4-1.8.5s.7 1-2.2.5c-2.5-.4-3.8-.2-3.8.5s-.8.9-2.1.5c-1.6-.5-1.9-.4-1.4.5.6 1 .1 1.2-2.3.7-1.7-.4-3.4-.2-3.7.4-.4.5-1.6.7-2.7.3-1.5-.4-1.8-.3-1.3.6.6 1 0 1.2-2.4.7-2.3-.5-3-.3-2.5.5s-.2.9-2.5.5c-2.3-.5-3-.3-2.5.5s-.2.9-2.4.5c-1.9-.4-3.2-.2-3.2.3 0 .6-1.2.8-2.7.4-2.3-.4-2.5-.3-1.3.6s.8 1.1-1.8.6c-2.3-.4-3.1-.2-2.6.6s-.2.9-2.5.5c-2.3-.5-3-.3-2.5.5s-.2.9-2.5.5c-2.2-.5-3-.3-2.5.4.4.8-.4.9-2.7.4-2.7-.5-3.1-.4-1.9.5s.8 1.1-1.7.7c-1.8-.2-3.3.1-3.3.6s-1.2.6-2.6.3c-1.9-.5-2.4-.3-1.8.5.5.9-.1 1-2.4.6-2-.4-3.2-.2-3.2.4s-.9.8-2.1.4c-1.6-.5-1.9-.4-1.4.5.6 1 .1 1.2-2.3.7-1.9-.4-3.2-.2-3.2.3 0 .6-1.2.8-2.7.4-2.3-.4-2.5-.3-1.3.6s.9 1.1-1.7.6c-2.1-.3-3.3-.1-3.3.5 0 .7-1 .9-2.7.5-2.2-.5-2.5-.4-1.3.5 1.2.8.6.9-2.3.5-2.6-.3-3.5-.1-3.1.6.5.8-.3.9-2.5.5-2.2-.5-3-.3-2.5.4.4.8-.4.9-2.6.4-2.4-.5-3.1-.4-2.5.5s-.1 1-2.5.5c-2.5-.5-3.1-.4-2.5.5.6 1 .1 1.2-1.9.8-1.4-.3-2.6-.1-2.6.4 0 .6-1.1.7-2.6.4-1.8-.5-2.4-.3-1.9.5s-.1.9-2.4.4c-2.1-.4-3.1-.3-3.1.5 0 .7-.8.9-2.1.5-1.6-.5-1.9-.4-1.4.5.6 1 .1 1.1-1.9.6-1.5-.4-2.6-.2-2.6.4s-1.1.8-2.6.4c-2.1-.5-2.5-.4-1.9.6s.1 1.2-1.9.8c-1.4-.3-2.6-.1-2.6.4 0 .4-1.2.5-2.6.2-2.1-.5-2.5-.4-1.9.6s.2 1.1-1.9.6c-1.6-.4-2.6-.2-2.6.5s-1 .9-2.7.5c-2.2-.5-2.5-.4-1.3.5 1.2.8.8.9-1.7.5-2.1-.3-3.3-.1-3.3.5 0 .7-1 .9-2.6.5-1.8-.5-2.4-.3-1.8.5.5.8-.2 1-2.4.7-1.9-.3-2.9 0-2.5.5.4.6-.6.8-2.5.4-2-.4-3.2-.2-3.2.4 0 .7-1 .9-2.6.5-1.7-.5-2.3-.3-1.9.4.3.5 0 1-.8 1s-1.8.7-2.1 1.6c-.3.8-.2 1.3.3 1 1.1-.7 2.3 2.2 1.5 3.5-.3.5 0 .9.6.9s.8.4.5 1c-.3.5-.1 1 .5 1 .7 0 1 .7.6 1.5-.3.8-.1 1.5.5 1.5s.7.4.4 1c-.3.5-.1 1 .5 1 .7 0 1 .7.6 1.5-.3.8-.1 1.5.4 1.5s.6.7.3 1.7c-.5 1.2-.3 1.4.7.8s1.2-.3.8 1.3c-.4 1.4-.2 2 .5 1.5.6-.4.8.2.5 1.5-.4 1.4-.2 2 .5 1.5.6-.4.8.2.5 1.5-.4 1.2-.2 2.2.4 2.2s.8.9.5 2-.1 2 .5 2 .7 1.1.4 2.5c-.4 1.6-.2 2.5.5 2.5s.9 1 .5 2.7c-.5 2.2-.4 2.5.4 1.3.8-1.1 1-.5.8 2.7-.2 2.3 0 4.3.5 4.3 3.1.1 3.7-.1 3.1-1.2q-.75-1.05 1.2-.6c1.1.3 2.6-.2 3.3-.9.7-.8 2.4-1.3 3.7-1 1.4.2 2.1 0 1.7-.6s.4-.7 2.1-.3c1.6.4 2.6.2 2.6-.5 0-.6.7-.9 1.5-.5.8.3 1.5.1 1.5-.5s.9-.8 2.1-.4c1.6.5 1.9.4 1.4-.5s-.1-1 1.5-.5c1.7.5 2.1.4 1.5-.6-.6-.9-.2-1.1 1.3-.7 1.2.4 2.2.3 2.2-.1s1.4-.8 3.1-.8 3.4-.5 3.8-1.2c.4-.6 1.5-.9 2.4-.5 1 .3 1.7.1 1.7-.6s.8-.9 2.1-.5c1.6.5 1.9.4 1.4-.5s-.2-1 1.4-.5c1.2.4 2.1.2 2.1-.4s.7-.8 1.5-.5c.8.4 1.5.1 1.5-.6s.7-1 1.5-.7c.8.4 1.7.2 2-.3s1.3-.6 2.2-.3c1.2.5 1.4.3.8-.7s-.3-1.2 1.3-.8c1.2.4 2.2.2 2.2-.4s.9-.8 2-.5c1.3.3 1.8.1 1.3-.6-.4-.6.2-.8 1.5-.5 1.2.4 2.2.2 2.2-.4 0-.5.9-.6 2-.3 1.2.4 2 .2 2-.5s.7-1 1.5-.7c.8.4 1.7.2 2-.3s1.2-.7 2-.3c.8.3 1.5 0 1.5-.7s.8-.9 2-.5 2 .2 2-.5.7-1 1.5-.6c.8.3 1.5.1 1.5-.5s.7-.9 1.5-.5c.8.3 1.5.1 1.5-.5s.9-.8 2.1-.4c1.6.5 1.9.4 1.4-.6-.6-.9-.2-1.1 1.3-.7 1.2.4 2.2.2 2.2-.4 0-.5 1-.6 2.1-.3 1.6.5 1.9.4 1.4-.6-.6-.9-.2-1.1 1.3-.7 1.2.4 2.2.2 2.2-.2s1-.6 2.2-.2c1.6.4 1.9.2 1.3-.8s-.3-1.2 1.3-.8c1.2.4 2.2.2 2.2-.4 0-.5 1-.6 2.1-.3 1.6.5 1.9.4 1.4-.5s-.2-1 1.4-.5c1.2.4 2.1.2 2.1-.4s.7-.7 1.7-.4c1 .4 1.4.2 1-.4-.7-1.1 4.9-2.7 6.4-1.7.5.3.9 0 .9-.6 0-.7.7-1 1.5-.6.8.3 1.5.1 1.5-.5s.9-.8 2.1-.4c1.6.5 1.9.4 1.4-.5s-.2-1 1.4-.5c1.3.4 2.1.2 2.1-.5s.8-.9 2.1-.5c1.6.5 1.9.4 1.4-.5s-.1-1 1.5-.5c1.7.5 2.1.4 1.5-.6-.6-.9-.2-1.1 1.3-.7 1.4.4 2 .2 1.6-.4-.5-.7.2-.9 2-.4 1.6.4 2.6.2 2.6-.5 0-.6.7-.8 1.6-.5 1 .4 1.3.2.8-.6-.5-.7 0-.9 1.4-.6 1.2.4 2.2.2 2.2-.4 0-.5 1-.6 2.1-.3 1.6.5 1.9.4 1.4-.6-.6-.9-.2-1.1 1.3-.7 1.2.4 2.2.2 2.2-.4s.7-.8 1.5-.4c.8.3 1.5.1 1.5-.3 0-.5.9-.7 2-.4 1.2.3 2 0 2-.7s.7-1 1.6-.6c1 .4 1.3.2.8-.6-.5-.7 0-.9 1.4-.6 1.2.4 2.2.2 2.2-.4s.9-.8 2-.5 2 .1 2-.5.7-.8 1.5-.4c.8.3 1.5.1 1.5-.5s.9-.8 2.1-.4c1.6.5 1.9.4 1.4-.6-.6-.9-.2-1.1 1.5-.6 1.4.3 2.8 0 3.7-.9 1.2-1.2 3.1-1.3 9.1-.8 4.4.4 7.3.3 7-.2-.4-.5 1-1 2.9-1.2 2.1-.1 3.2.2 2.8.8s1.6 1 5.4 1 6.1-.4 6.1-1.1c0-.6.7-.9 1.5-.5.8.3 1.5.1 1.5-.5s.4-.8.8-.5c.5.3 1.5-.6 2.2-1.9s1.7-2.2 2.1-1.9c.5.3.6-.2.3-1-.3-.9-.1-1.6.5-1.6s1.1-1.1 1.1-2.5-.5-2.5-1.1-2.5c-.7 0-.9-1.1-.5-3 .4-2.2.2-2.9-.6-2.4s-.9-.2-.5-2.5c.5-2.2.3-3-.5-2.5s-.9-.4-.4-3.2c.5-3 .4-3.6-.4-2.4-.9 1.2-1 .8-.6-1.8.3-2 .1-3.2-.5-3.2-.7 0-.9-1.1-.5-3 .3-1.9.2-2.9-.4-2.5s-.7-.6-.4-2.5q.75-3-.6-3c-.8 0-1-.9-.6-2.6.5-1.9.3-2.4-.5-1.8-.9.5-1.1-.3-.6-2.9.3-2.3.2-3.7-.5-3.7-.6 0-.8-1-.4-2.6.5-1.9.3-2.4-.5-1.8-.9.5-1.1-.3-.6-2.9.3-2.3.2-3.7-.5-3.7-.6 0-.8-1.1-.4-2.8.5-2.1.4-2.4-.4-1.2-.9 1.2-1 .7-.8-2.2.2-2.1 0-3.4-.6-3.1-.5.4-.7-.8-.3-3 .3-2.3.2-3.7-.5-3.7-.6 0-.8-1-.4-2.6.5-1.9.3-2.4-.5-1.8-.9.5-1.1-.3-.6-3 .4-2.5.2-3.4-.5-3-.7.5-.9-.5-.4-3 .5-2.3.3-3.6-.4-3.6s-.9-1.3-.5-3.8c.5-2.9.4-3.4-.5-2.2s-1.1.7-.8-2.3c.2-2 0-3.7-.5-3.7-.4 0-.5-1-.2-2.1.5-1.6.4-1.9-.6-1.4-.9.6-1.1.3-.6-.8.4-1 .2-1.6-.6-1.4-.7.1-1.2-.7-1.2-1.7 0-1.6-.9-2-5-2.3-2.8-.2-5.8-.5-6.8-.7-1-.3-1.4 0-1 .7"/><path d="M802.8 286.7c.7.3 1.6.2 1.9-.1.4-.3-.2-.6-1.3-.5-1.1 0-1.4.3-.6.6m-316.3 20.5c1.8.4.3.6-3.7.4-4.5-.3-6.6 0-6.1.7q.6 1.05-3.6.3c-3.1-.5-4.1-.3-3.5.5.5.9-.4 1-3.2.5-3-.5-3.6-.4-2.4.4 1.2.9.6 1-2.5.6-2.9-.4-3.6-.3-2.5.5s.7.9-1.7.7c-1.9-.3-3 0-2.6.5.4.6-.4.7-2.1.3s-2.6-.2-2.6.5c0 .6-.9.9-2 .6s-2-.1-2 .5-.7.7-1.6.4c-1-.4-1.3-.2-.8.6.5.7 0 .9-1.4.6-1.2-.4-2.2-.2-2.2.4s-.7.7-1.6.4c-.9-.4-1.3-.2-.8.5.4.7-.1.9-1.2.7s-2.4.2-2.9.9c-.6.8-2.5 1.4-4.2 1.6-1.8.1-3.3.6-3.3 1.1s-.3.7-.6.3c-.4-.3-1.3.1-2.1.9-.9.8-2.2 1.3-3 1-.9-.4-1.1-.2-.7.6.5.8.2.9-1 .5-1.1-.5-1.5-.3-1 .5s.2.9-1 .5c-1.1-.5-1.5-.3-1 .5s.1.9-1.2.4c-1-.4-1.5-.4-1.1 0s-.2 1.4-1.4 2.2c-1.1.8-2.3 1.2-2.5.9-.3-.3-1.4.3-2.5 1.4s-2.5 1.7-3.1 1.3-.8-.3-.5.3c.3.5-.8 1.8-2.5 2.8-2.2 1.2-2.9 1.4-2.3.4.4-.8-.3-.2-1.6 1.2s-3.3 3.2-4.3 4c-1.7 1.2-1.9 1.2-1.2-.1.5-.8-.6.1-2.4 2s-2.7 2.6-2 1.5-.9.4-3.5 3.3c-2.6 2.8-5 5-5.4 4.7-.4-.2-3.4 2.7-6.6 6.5-3.2 3.9-6 7-6.3 7s.3-1 1.4-2.3l1.9-2.2-2.2 1.9c-1.3 1-2.1 2.1-1.9 2.5.2.3-.7 2-2.1 3.6-1.4 1.7-2.2 2.4-1.8 1.6.6-.9.4-1.2-.4-.7-.6.4-.9 1.1-.6 1.6s-1.1 2.6-3.2 4.7c-2.1 2-3.2 3.4-2.5 2.9 1.1-.7 1.1-.4.1 1.2-.7 1.2-1.6 1.9-2 1.6-.4-.2-.6.4-.5 1.4 0 1-.5 1.6-1.4 1.4-.8-.2-1.2 0-.8.4s0 1.3-1 2.1c-1.1 1-1.2 1.2-.2.8.8-.4.6.1-.4.9-1.1.9-1.6 1.6-1.1 1.6s0 .7-1.1 1.6c-1 .8-1.2 1.3-.4.9 1-.4.9-.2-.2.8-1 .8-1.5 1.7-1.2 2s0 1.5-.8 2.6c-.8 1.2-1.8 1.8-2.2 1.4s-.4.1 0 1.1c.5 1.3.4 1.7-.4 1.2s-1-.1-.5 1c.4 1.2.3 1.5-.5 1s-1-.1-.5 1c.5 1.3.3 1.5-.7.9-.8-.5-1.1-.4-.7.2.8 1.3-2 8.3-3.3 8.3-.5 0-.6.7-.3 1.7.5 1.2.3 1.4-.7.8s-1.2-.4-.7.8c.3 1 .2 1.7-.3 1.7s-.7.7-.4 1.5c.4.8.1 1.5-.5 1.5s-.8.7-.4 1.7c.5 1.1.3 1.4-.6.8-1-.6-1.1-.2-.6 1.5.5 1.6.4 2-.5 1.5s-1-.1-.5 1.5.4 2-.5 1.5-1-.1-.5 1.5.4 2-.5 1.5-1-.2-.5 1.4c.3 1.1.2 2.1-.3 2.1s-.7 1.2-.5 2.7c.4 2.2.2 2.5-.7 1.3-.8-1.2-.9-.9-.4 1.2.4 1.9.2 2.8-.6 2.8s-1 .9-.6 2.6c.5 1.8.3 2.4-.5 1.9-.8-.6-.9.2-.4 2.5s.4 3.1-.4 2.5c-.8-.5-1 .1-.5 1.9.3 1.4.3 3.4-.1 4.3-.4 1-.7 4.5-.6 7.8s-.2 5.5-.6 4.9c-.4-.7-.8 4.7-.9 11.9 0 7.4.3 12.2.8 11.1.5-1.2.7.6.6 4.6-.2 3.6.1 7.1.6 7.8.4.7.5 2.4.2 3.8-.4 1.4-.2 2.4.5 2.4s.8 1.2.4 3.2c-.5 2.6-.4 3 .5 1.8s1.1-.8.6 1.7c-.3 1.8-.1 3.5.5 3.9.6.3.8 1.3.5 2.1-.4.9-.2 1.1.6.7.8-.5.9.1.4 2-.5 2-.4 2.6.5 2 .9-.5 1-.1.7 1.4-.4 1.4-.2 2 .5 1.5.6-.4.8.2.5 1.5-.4 1.2-.2 2.2.4 2.2s.7.7.4 1.6c-.4 1-.2 1.3.6.8.7-.5.9 0 .6 1.4-.4 1.2-.2 2.2.3 2.2.4 0 .5.7.2 1.7-.5 1.2-.3 1.4.7.8s1.2-.4.7.8c-.3 1-.2 1.7.3 1.7s.6.7.3 1.7c-.5 1.2-.3 1.4.7.8s1.2-.4.7.8c-.4 1.1-.1 1.7.8 1.7q1.95 0 1.8 5.7c-.1.7.4 1 1 .6s.8 0 .4 1.1c-.5 1.1-.3 1.5.5 1s.9-.2.5 1c-.5 1.1-.3 1.5.5 1s.9-.2.5 1c-.5 1.1-.3 1.5.5 1s.9-.1.4 1.2c-.4 1-.4 1.5 0 1.1 1-1 3.6 3.1 2.8 4.5-.4.7-.3.8.4.4 1.1-.6 1.4-.1 1.1 2 0 .3.8 1.2 1.8 2.1 1.1.8 1.2 1.2.3.8-.8-.4-.6.2.6 1.2 3 2.6 8.2 9.8 6.4 8.9-.8-.4-.3.2 1.1 1.3 3.3 2.6 9.2 10.3 6.4 8.2-1.1-.8.1.5 2.8 2.8 2.6 2.4 4.5 4.6 4.2 5-.2.4 1.2 2.3 3.1 4.2s3.6 3.2 3.8 2.9c.1-.3 2.2 1.3 4.6 3.4 2.5 2.1 3.8 3.5 3 3.1-.9-.5-1.2-.4-.7.1s1.2.9 1.5 1c2 .2 4.2 1.8 4.2 2.9 0 .8.5 1.7 1.2 2.1q1.05.75.3-.6c-.5-.7.3-.5 1.7.6 1.4 1 2.4 2.2 2.1 2.7-.2.4-.1.7.4.6 1.6-.4 4.3 1.3 3.6 2.4-.3.6-.1.7.5.3.7-.4 2.2.3 3.5 1.6 2.4 2.4 3.1 2.8 4.8 2.8.5 0 .7.5.4 1-.4.6-.3 1 .2.9 2.4-.4 4.3.3 4.3 1.6 0 .8.6 1.2 1.3.9.7-.2 2.2.4 3.4 1.5 1.1 1.1 2.4 1.7 2.7 1.4.3-.4.6-.1.6.5s.6.9 1.4.6 2.3.3 3.3 1.3c1.1 1.1 2.5 1.7 3.3 1.5.7-.3 1 0 .6.7-.5.7-.1.9.8.5.9-.3 1.6-.1 1.6.5s.7.8 1.7.4c1.1-.4 1.4-.3.9.5s-.2 1 .8.6c.9-.3 1.6-.1 1.6.5s.7.8 1.5.5c.8-.4 1.5-.1 1.5.5s.7.8 1.5.5c.8-.4 1.5-.2 1.5.4s1 .8 2.2.4c1.3-.3 1.9-.1 1.5.5s.3.8 1.7.6c1.3-.3 3 .2 3.7 1 .7.7 2.2 1.2 3.3.9 1.4-.4 1.7-.2 1.1.7-.5 1-.2 1.1 1.3.7 1.1-.4 2.3-.2 2.7.3.3.6 2 .8 3.7.4 2.3-.4 2.9-.3 2.4.6-.6.8-.1 1 1.8.5 1.5-.3 2.6-.2 2.6.4s1.8.8 4.3.6c3.2-.3 3.7-.2 2.2.5-1.4.7-.2.8 3.9.4 3.4-.4 5.7-.2 5.4.3-.7 1.1 27.2 1.1 29 0 .6-.4 2.9-.4 4.9-.1 3 .5 3.5.4 2.3-.5s-.5-1 2.8-.6c2.4.3 4.2.1 4.2-.4 0-.6 1.1-.8 2.5-.4 1.6.4 2.5.2 2.5-.6s.9-1.1 2.5-.8c1.5.3 2.2.1 1.8-.5s.4-.7 2.1-.3c2 .5 2.6.4 2-.5-.5-.8-.1-1.1 1.2-.7 1.1.3 2.6-.2 3.3-.9.7-.8 2.4-1.3 3.7-1 1.3.2 2.1 0 1.7-.6-.3-.5.3-.6 1.7-.2 1.6.5 2 .4 1.5-.5s-.1-1 1.5-.5c1.7.5 2.1.4 1.5-.6-.6-.9-.3-1.1.8-.6 1 .4 1.7.2 1.7-.4s.7-.9 1.5-.5c.8.3 1.5.1 1.5-.5s.5-.7 1-.4c.6.3 1 .1 1-.5 0-.7.7-1 1.5-.6.8.3 1.5.1 1.5-.5s.5-.7 1-.4c.6.3 1 .1 1-.5s.5-.8 1-.5c.6.3 1 .1 1-.5 0-.7.7-.9 1.6-.6 1 .4 1.3.2.8-.6s-.2-.9 1-.5c1.1.5 1.5.3 1-.5s-.2-.9 1-.5c.9.4 1.4.3 1.1-.2-.5-.9 2.3-2.3 3.7-1.8.4.1 1.3-.6 2-1.5s2-1.8 2.8-2 2.1-1 2.8-1.8c1.2-1.3 1.3-1.3.7 0-.4.8.1.6.9-.4.9-1.1 1.6-1.6 1.6-1.2 0 .5 1.3-.6 3-2.4 1.7-1.9 3.4-2.9 4.1-2.4q1.05.6.6-.3c-.6-.9 1.4-2.4 3.5-2.7.3-.1 1-.5 1.5-1s.2-.6-.7-.1c-1.7.9-1.1.3 3.5-3.5 2.2-1.9 2.6-2 1.5-.5-1.4 1.9-1.4 1.9.3.6.9-.7 1.7-1.8 1.7-2.3 0-1.1 5.7-6.1 6.4-5.6s5.6-4.4 5.1-5.2c-.5-.9 5.1-7 6.4-7 .6 0 1.3-.5 1.7-1.2q.75-1.05-.6-.3c-.8.5.1-1 1.9-3.3 1.8-2.2 4-4.3 4.8-4.6s1.2-1 .9-1.4c-.3-.5.2-1.8 1-2.8.9-1 1.2-1.3.8-.5-.5.9-.3 1.2.5.7.6-.4.9-1.2.6-1.7-.4-.5.7-2.1 2.2-3.6 1.5-1.4 2.1-2.3 1.3-1.9-.9.5-.8.2.2-.7 1-.8 1.5-1.7 1.1-2-.3-.4 0-.7.7-.7s1-.3.7-.7c-.4-.3.1-1.2 1.1-2 1.1-1 1.2-1.2.2-.8s-.9.2.2-.8c1-.8 1.5-1.7 1.1-2-.3-.4-.1-.7.6-.7s1-.4.6-.9c-.3-.5.1-1.5.8-2.3.7-.7 1.4-1.7 1.4-2.1.3-2.2 3.4-8.7 4.3-8.7.5 0 .6-.7.3-1.7-.4-1.1-.3-1.4.5-.9s1 .2.6-.8c-.3-.9-.1-1.6.5-1.6s.8-.6.5-1.3c-.3-.8.2-1.9 1-2.6s1.2-2 .9-2.8c-.5-1.2-.3-1.4.7-.8s1.2.4.7-.8c-.3-1-.2-1.7.4-1.7s.8-.9.4-2.1c-.5-1.6-.4-1.9.6-1.4.9.6 1.1.3.6-.8-.3-1-.2-1.7.2-1.7.5 0 .7-1 .3-2.2-.3-1.5-.2-1.9.7-1.4.9.6 1 0 .5-2-.5-1.9-.4-2.5.5-2 .9.6 1 0 .5-2-.5-1.9-.4-2.5.5-2 .8.6 1 0 .5-1.8-.3-1.5-.2-2.6.4-2.6s.8-.9.5-2-.1-2 .5-2c.7 0 .8-1.4.5-3.7-.4-2-.2-3.4.3-3.1.5.4.9-7.7.9-19.3 0-10.9.3-19.9.8-19.9.4 0 .7-1.2.6-2.8l-.1-2.7-.9 2.5c-.6 1.8-.7.8-.6-3.7.1-3.4-.2-5.9-.7-5.6-.5.4-.7-1.2-.3-3.5.3-2.6.1-4.2-.5-4.2s-.7-1.1-.4-2.5c.4-1.5.2-2.5-.4-2.5s-.8-1.1-.4-2.8c.4-2.2.3-2.4-.6-1.2s-1.1.8-.6-1.8c.4-2.3.2-3.1-.6-2.6s-.9-.1-.4-2c.5-2 .4-2.6-.5-2-.9.5-1 .1-.7-1.4.4-1.2.2-2.2-.3-2.2-.4 0-.5-.7-.2-1.7.5-1.2.3-1.4-.7-.8s-1.2.3-.8-1.3c.4-1.2.2-2.2-.3-2.2-.4 0-.5-.7-.2-1.7.5-1.2.3-1.4-.7-.8s-1.2.3-.8-1.3c.4-1.2.2-2.2-.4-2.2-.5 0-.6-.5-.3-1 .3-.6.1-1-.5-1-.7 0-1-.6-.7-1.3.2-.6-.3-1.7-1.1-2.3-.7-.5-1.5-2.2-1.5-3.6-.1-1.4-.5-2.4-.8-2.2-.9.5-2-2.6-1.3-3.7.3-.5 0-.9-.6-.9s-.9-.4-.6-.9-.1-1.2-1-1.5c-.9-.4-1.4-1.3-1-2.2.3-.8.2-1.3-.2-1-.4.2-1.8-1.4-3.1-3.6-1.3-2.4-1.7-3.8-.9-3.3.7.3.4-.1-.6-.9-1.1-.9-1.6-1.6-1.1-1.6s0-.7-1.1-1.6c-1-.8-1.2-1.3-.4-.9s.4-.3-1-1.5-1.9-1.8-1.1-1.4c.9.5 1.2.3.7-.4-.4-.7-1.4-1.2-2.3-1.2s-1.3-.6-1-1.5c.4-.8.1-1.7-.5-2.1-.7-.4-.8-.3-.4.4 1.5 2.4-.2 1.1-1.9-1.4-1.1-1.8-1.2-2.4-.4-1.8 1.2.6 1.2.5 0-.9-.7-.9-1.7-1.5-2.1-1.2-.7.5-1.5-.7-1.9-3-.3-1.4-4.3-5.5-5.3-5.5-1.3 0-6.4-6.2-6-7.3.1-.5-.1-.6-.5-.4-.5.3-3.3-1.8-6.3-4.7-3-2.8-4.6-4.4-3.5-3.6 2 1.5 2 1.5.1-.7-1-1.3-2.2-2-2.7-1.8-.4.3-2.6-1.2-4.9-3.4s-4.3-4-4.6-4c-1.9-.3-6.3-3.4-5.9-4.1.3-.6 0-.7-.8-.4s-2.1-.3-2.8-1.3c-.8-1-2.1-1.9-2.9-2.1s-2.1-1.1-2.8-2-1.5-1.6-1.7-1.5c-1.2.7-2.6.2-2-.7.4-.6-.1-.7-1.1-.3-1.2.4-1.5.3-1-.5.4-.8.2-1-.8-.6-.8.3-2.3-.3-3.3-1.3-1.1-1.1-2.5-1.7-3.3-1.5-.7.3-1 0-.6-.6.3-.5 0-1-.7-.9-3.1.1-4.8-.4-4.3-1.2.3-.5 0-.9-.7-.8-3.3.1-4.8-.4-4.1-1.4.4-.8-.1-.9-1.6-.4-1.4.5-2 .3-1.6-.3s-.2-.8-1.6-.4c-1.4.3-1.9.1-1.4-.6.5-.8.2-1-.8-.6-.9.3-1.6.2-1.6-.4s-.9-.8-2-.5-2 .1-2-.5-1-.8-2.2-.4c-1.6.4-1.9.2-1.3-.8s.4-1.2-.8-.7c-.9.3-1.9.2-2.2-.3-.4-.6-1.2-1-1.8-1-.7 0-.6.4.3 1.1 1.1.8.9.9-1 .3-1.4-.4-2.6-1.1-2.8-1.5-.2-.5-1.5-.6-2.9-.3-2 .5-2.4.4-1.8-.6s0-1.1-2.9-.6c-2.4.5-3.6.3-3.6-.5s-1.4-.9-4.5-.5c-2.5.4-4.5.4-4.5-.1s-7.3-.8-16.2-.8-14.9.3-13.3.7m-3.5 79.2c0 24-.3 44.2-.6 45.1-.4.9-1.3 1.4-2 1.1-.8-.3-1.4-.1-1.4.5s-.7.9-1.5.5c-.8-.3-1.5-.1-1.5.5s-.4.7-1 .4c-.5-.3-1-.1-1 .5s-.4.8-1 .5c-.5-.3-1-.1-1 .6s-.3.9-.7.6c-.3-.4-1.2.1-2 1.1-1 1.1-1.2 1.2-.8.2.5-1.2.4-1.2-.7.1-2.7 3.3-5.1 3-9.8-1.3-2.5-2.2-3.9-3.7-3.1-3.3.9.6 1.2.4.7-.4-.4-.6-1.1-.9-1.5-.6-.5.2-2.7-1.3-5-3.4-2.2-2.1-4.4-3.5-4.8-3.2-.3.3-.3.1 0-.5.4-.6-.3-2-1.6-3-2.1-1.9-2.1-1.9-.7.1.8 1-.4.4-2.7-1.5-4.1-3.2-6.2-5.7-2.5-2.9 1.5 1.1 1.5 1.1.4-.1-.7-.8-1.7-1.6-2.2-1.6-.6-.1-1.4-.2-2-.3-.5 0-1-.7-1-1.4 0-.8-1-2.2-2.2-3.3-2.2-1.9-2.2-1.9-.8.1.8 1-.4.4-2.7-1.5-4.2-3.2-5.6-4.9-3-3.4.7.4.9.3.4-.2s-1.3-.9-1.8-.9c-.4 0-2.1-1.4-3.6-3.1-1.5-1.6-2.3-2.3-1.8-1.4.6.9-1.2-.6-3.9-3.4-2.8-2.8-4.3-4.2-3.5-3.1 1.1 1.5.7 1.4-1.8-.5-1.8-1.4-3.2-3-3.2-3.6-.1-.6-1.1-1.9-2.3-3l-2.3-1.9 2 2.5c1.3 1.6.7 1.3-1.7-.9-5.2-4.8-5.3-6.4-.5-10.2 2.2-1.8 3.7-2.6 3.3-1.8s.5 0 2.1-1.6c3.9-4.3 7.9-7.4 6.9-5.5-.5.8.2.3 1.5-1.2 2.9-3.3 11.9-8.9 13-8.2.5.3.9.1.9-.5 0-1.5 7.8-5.3 9.2-4.5.6.4.8.3.5-.3-.8-1.3 2-2.6 3.5-1.6.7.4.8.1.3-.7-.6-1-.4-1.2.8-.7 1 .3 1.7.2 1.7-.3s.7-.6 1.7-.3c1.2.5 1.4.3.8-.7s-.4-1.2.8-.7c1 .4 1.7.2 1.7-.4s.7-.8 1.6-.5c1 .4 1.3.2.8-.6-.5-.7 0-.9 1.4-.6 1.2.4 2.2.2 2.2-.4 0-.5 1-.6 2.1-.3 1.6.5 1.9.4 1.4-.5-.6-1-.1-1.2 1.9-.8 1.4.3 2.6.1 2.6-.3 0-.5 1.4-.6 3.2-.2 2.4.5 2.9.3 2.3-.7s.1-1.2 3.3-.6c2.5.3 4.2.2 4.2-.3 0-1.5 5.3-1.8 6.8-.4 1 1 1.3 10.5 1.2 44.7m36.5-44.3c-.5.7.8.9 4.1.4 3.8-.5 4.6-.4 3.4.5s-.8 1 1.9.5c2-.5 3.1-.3 2.8.2-.4.6.4.8 2 .5 1.9-.4 2.4-.2 1.8.8-.5.9-.2 1 1.4.5 1.1-.3 2.1-.2 2.1.3 0 .6 1 .8 2.2.4 1.4-.3 1.9-.1 1.4.6-.5.8-.2 1 .8.6.9-.4 1.6-.1 1.6.6s.7 1 1.5.6c.8-.3 1.5-.1 1.5.5s.4.8.9.5c1.3-.8 7.2 1.4 6.5 2.5-.3.5.3.6 1.2.2 1.3-.5 1.5-.3.9.7-.5.8-.4 1.1.3.6 1.3-.8 6.3 1.4 5.6 2.5-.3.5.2.6 1 .3.9-.4 1.8.1 2.2 1 .3.9 1 1.4 1.4 1.1s1 .2 1.4 1c.3.8 1.2 1.2 2 .9s3 1 5.2 3.3c2.1 2.1 3.4 3.2 3 2.4-.6-.8.1-.7 1.8.4 1.4.9 2.3 2.2 1.9 2.8-.3.5-.1.7.4.4.6-.4 2.3.5 3.9 1.9 1.6 1.5 2.2 2.3 1.4 1.9-.8-.5-1.3-.6-1-.2.3.3 1 .6 1.5.7 1.9.4 9 7.4 9 9s-33.4 31.2-34.6 30.5c-.4-.3-1.3.3-2 1.3-1.3 1.5-1.2 1.6.4.3.9-.7 1.7-1.1 1.7-.8 0 .2-2.1 2.2-4.7 4.3s-4.4 3.2-3.9 2.4c.4-.8-.2-.4-1.3 1-2.4 3.1-15.2 14.3-13.1 11.4.8-1.1-.5.1-3 2.7-3.5 3.7-5.2 4.6-7.5 4.5-1.9-.1-2.9-.6-2.7-1.4.1-.8-.2-1.1-.7-.7-.6.3-1.8-.2-2.8-1.2s-2.4-1.8-3-1.9c-3-.2-3.4-.5-2.8-1.4.3-.6-.1-.7-.9-.4-.9.3-1.6.1-1.6-.5s-.7-.8-1.5-.5-2.2-.1-3-1c-1.4-1.4-1.6-6.8-1.4-45.1l.1-43.6 2.1-.9c3.2-1.3 8-1.2 7.2.1m111 24.9c1 1.1 1.6 2 1.3 2s-1.3-.9-2.3-2-1.6-2-1.3-2 1.3.9 2.3 2m-238.1 49.2c2.1 2.1 4.2 3.8 4.5 3.8 1.1.1 6.1 4.9 6.1 5.8 0 .5.8 1.6 1.8 2.3 1.6 1.3 1.6 1.3.2-.6-.8-1 .4-.4 2.8 1.5 3.9 3.1 5.6 5 3 3.4-.7-.4-.8-.3-.4.5.4.6 1.1.9 1.4.7.4-.2 2.1.8 3.8 2.2 1.6 1.5 2.3 2.3 1.4 1.7-1.3-.8-1.3-.7-.2.5.7.8 1.7 1.6 2.3 1.6.5.1 1.4.2 1.9.3.6 0 1 .7 1 1.5 0 .7.8 2 1.8 2.7 1.6 1.3 1.6 1.2.3-.6-.7-1.1.6 0 3 2.5 2.3 2.5 3.7 3.6 2.9 2.5-.7-1.1.7 0 3.1 2.5s4 3.9 3.4 3c-.5-.9.2-.4 1.7 1.1 1.4 1.5 2.8 2.6 3 2.3.7-.6 4.6 3.9 4.8 5.6.5 3.3 0 5.1-1.2 4.4-.8-.5-.9-.2-.5.9.3 1 .2 1.7-.2 1.7-.5 0-.7 1.9-.4 4.2.3 3.3.2 4-.7 2.8-.8-1.2-.9-.6-.4 2.3.6 3.3.4 3.9-1.5 4.4-1.1.3-1.8 1-1.4 1.6s0 .8-1 .4c-1-.3-1.7-.2-1.7.4s-.9.8-2.1.4c-1.6-.5-1.9-.4-1.4.6.6.9.2 1.1-1.3.7-1.2-.4-2.2-.2-2.2.4s-.7.7-1.6.4c-1-.4-1.3-.2-.8.6.5.7 0 .9-1.4.6-1.2-.4-2.2-.2-2.2.4s-.7.7-1.6.4c-1-.4-1.3-.2-.8.6.5.7-.1.9-2 .4-1.6-.4-2.6-.2-2.6.5 0 .6-.7.8-1.6.5-1-.4-1.3-.2-.8.6.5.7 0 .9-1.4.6-1.2-.4-2.2-.2-2.2.4s-.7.7-1.6.4c-1-.4-1.3-.2-.8.6.5.7 0 .9-1.4.6-1.4-.4-2-.2-1.6.4.5.7-.2.9-2 .6-1.4-.3-2.6-.1-2.6.4 0 .6-.7.8-1.5.4-.8-.3-1.5-.1-1.5.5s-.7.9-1.5.5c-.8-.3-1.5-.1-1.5.5s-.7.9-1.5.5c-.8-.3-1.5-.1-1.5.5s-.9.8-2.1.4c-1.6-.5-1.9-.4-1.4.6.6.9.2 1.1-1.3.7-1.2-.4-2.2-.2-2.2.4s-.7.7-1.6.4c-1-.4-1.3-.2-.8.6.5.7.1.9-1.2.6-1.1-.3-2.6.1-3.3.9-.8.9-2.2 1.2-3.8.8q-2.55-.6-1.8.6c.5.8.1.9-1.5.4-1.7-.5-2.1-.4-1.5.6.6.9.2 1.1-1.3.7-1.4-.4-2-.2-1.5.5.4.6-.2.8-1.5.5-1.4-.4-2-.2-1.5.5.4.6-.2.8-1.5.5-1.2-.4-2.2-.2-2.2.4s-.7.7-1.6.4c-.8-.3-1.2-.2-.9.4s.1 1-.4 1c-.6 0-1.1-.7-1.1-1.6s-.5-1.2-1.1-.8c-.9.5-1-.4-.5-3.1.5-2.3.4-3.5-.2-3.1-1.7 1-2-1.6-2.1-20.7-.1-15.7.1-18.8 1.3-19.3 1.1-.4 1.3-1.4.9-3.5-.3-1.8-.1-2.9.6-2.9.6 0 1.1-.5 1.1-1.1 0-.5-.4-.8-.9-.5-.5.4-.7-.3-.4-1.4s.9-2 1.2-2c.4 0 .6-1.3.3-2.9-.2-1.7.2-3.4 1-4.2.8-.7 1.3-2.3 1-3.4-.2-1.2.3-2.8 1-3.6.8-.8 1.3-2 1-2.8s0-1.1.6-.7.8-.2.4-1.6c-.3-1.4-.1-1.9.6-1.4.8.5 1 .2.6-.8-.3-.9-.1-1.6.6-1.6.6 0 .8-.5.5-1-.3-.6-.2-1 .4-1s.7-.7.4-1.7c-.4-1.1-.3-1.4.5-.9s1 .2.6-.8c-.3-.9-.1-1.6.6-1.6.6 0 .8-.5.5-1-.3-.6-.1-1 .4-1 .6 0 1-.3 1-.8-.3-1.8.2-3.3.9-2.8.4.2.9-.5.9-1.6.1-1.2.7-2.6 1.4-3.2.9-.8 1-.7.4.3-.5 1-.4 1.2.4.7.6-.4.9-1.1.6-1.6-.9-1.5 1.4-5 3.8-5.9 2.3-.9 6.4 2 16.1 11.1m227.1-8.4c-.2.3.3 1.1 1.3 1.9 1 .9 1.1 1.2.2.7-.8-.4-.2.5 1.3 1.9 1.6 1.5 2.5 3.2 2.1 3.9s-.3.8.4.4c1.1-.6 1.3-.2 1.2 1.9-.1.3.6 1.3 1.5 2.1.8.9 1.3 2 1 2.5-.4.5-.1.9.5.9s.8.4.5 1c-.3.5-.2 1 .4 1s.7.7.4 1.7c-.4 1-.2 1.4.4 1 1.3-.8 3.8 4.7 2.8 6.2-.3.6-.2 1.1.4 1.1s.7.7.4 1.7c-.5 1.2-.3 1.4.7.8s1.2-.3.8 1.3c-.4 1.2-.2 2.2.4 2.2s.7.7.4 1.6c-.4 1-.2 1.3.6.8s.9.1.4 2c-.4 1.7-.3 2.5.3 2.2 1.2-.8 2.6 5.3 2.5 11.6 0 2.7.4 4.8.9 4.8.6 0 .7 2.3.3 5.7-.4 4-.3 5.3.4 4.3s1 2.2 1 10.5c0 8.5-.3 11.6-1.1 10.5-.7-1.1-.8-.5-.3 2.2.3 2 .2 4.3-.2 5s-.7 2.6-.5 4.3c.1 2.1-.5 3.7-1.8 4.9-1.2 1.1-2.1 1.4-2.1.8s-.7-.9-1.5-.6c-.8.4-1.5.2-1.5-.4s-1-.8-2.2-.4c-1.4.3-1.9.1-1.4-.6.5-.8.2-1-.8-.6-.9.3-1.6.2-1.6-.4s-1-.8-2.2-.4c-1.4.3-1.9.1-1.4-.6.5-.8.2-1-.8-.6-.9.3-1.6.2-1.6-.4s-1-.8-2.2-.4c-1.4.3-1.9.1-1.4-.6.5-.8.2-1-.8-.6-.9.3-1.6.2-1.6-.4s-1-.8-2.2-.4c-1.6.4-1.9.2-1.3-.8s.4-1.2-.8-.7c-1 .3-1.7.2-1.7-.2 0-.5-1-.7-2.2-.3-1.4.3-1.9.1-1.4-.6.5-.8.2-1-.8-.6-.9.3-1.6.2-1.6-.4s-1-.8-2.2-.4c-1.5.4-1.9.2-1.3-.7.6-1 .2-1.1-1.5-.6-1.5.5-2 .4-1.6-.4.5-.7.1-.9-.8-.5-.9.3-1.6.1-1.6-.6s-.8-.9-2.1-.5c-1.4.5-1.9.4-1.5-.4.5-.7.1-.9-.8-.5-.9.3-1.6.1-1.6-.5s-.8-1-1.7-.9c-3.7.3-5.4-.2-4.7-1.4.5-.8.2-.9-.9-.5-1 .3-1.7.2-1.7-.2 0-.5-1-.7-2.2-.3-1.6.4-1.9.2-1.3-.8s.4-1.2-.8-.7c-.9.3-1.9.2-2.2-.2-.3-.5-1.5-.7-2.7-.3-1.4.3-1.9.1-1.4-.6.5-.8.2-1-.8-.6-.9.3-1.6.2-1.6-.4s-1-.8-2.2-.4c-1.4.3-1.9.1-1.4-.6.5-.8.2-1-.8-.6-.9.3-1.6.1-1.6-.5s-.7-.8-1.5-.5c-.8.4-1.5.1-1.5-.5s-.6-.8-1.3-.5c-.7.2-2.4-.4-3.6-1.6-2.1-1.7-2.3-2.6-1.8-7.2.4-3.7.3-4.7-.4-3.3-.7 1.6-.9 1.4-.6-1.3.2-1.7-.1-3.2-.6-3.2s-.7-.6-.4-1.4.1-1.6-.4-1.8c-1.7-.6.6-5 4.2-8.3 1.9-1.7 2.7-2.1 2-1-.8 1.1.3.1 2.3-2.3 2.1-2.3 4.2-4 4.6-3.7.5.3 1.2 0 1.6-.6.5-.8.3-1-.7-.4-2 1.1.1-.8 9.1-8.5 4.1-3.6 6.8-5.6 6-4.5s.7-.2 3.4-3c2.6-2.7 4.2-4.1 3.5-3-.8 1.1 1.9-1.3 5.9-5.3 3.9-4 7.6-7.1 8.1-6.8s1.5-.2 2.2-1.2q1.95-2.25-.3-.3c-1 .7-1.8 1.1-1.8.9 0-.3 2.4-2.5 5.3-4.9 2.8-2.4 4.5-3.5 3.7-2.4-1.4 2-1.4 2 .8.1 1.2-1.1 2-2.1 1.8-2.4-.3-.2.7-1.4 2.2-2.7 2.4-2.1 2.8-2.1 4.9-.7 1.3.8 2.1 1.7 1.8 2m-120.1 48.4c-.5.8.2.9 2.3.5 3.1-.6 8.3 1 8.3 2.6 0 .5.4.5 1 .2.5-.3 3.1 1.5 5.7 4 2.7 2.6 4.1 4.4 3.3 4-.9-.4-.7 0 .3.8 1 .9 1.8 1.8 1.8 2.1-.3 2 0 2.6.9 2.1.6-.3.7.1.4.9-.4.9-.1 1.6.6 1.6s1 .7.6 1.6c-.3.8-.2 1.3.3 1s.9 2.8.9 6.9c0 5-.4 7.3-1.1 6.8-.6-.4-.8 0-.4 1s.2 1.7-.4 1.7-.9.7-.5 1.5c.3.8.1 1.5-.5 1.5s-.7.4-.4 1c.8 1.4-9.5 12.2-11.1 11.6-.7-.3-1.5.2-1.8 1.1-.4.9-1.4 1.3-2.6 1-1.3-.3-1.8-.1-1.4.5.5.7-.2.9-2 .4-1.5-.4-2.6-.2-2.6.4 0 .5-1.8 1-4 1s-4-.5-4-1c0-.6-1.1-.8-2.6-.4-1.8.5-2.5.3-2-.4.3-.6-.1-.8-1.2-.5-1.2.3-3.1-.7-5.2-2.9-1.9-1.8-3.1-2.7-2.6-2.1 1.3 2.2.1 1.4-3-1.9-1.6-1.7-2.2-2.7-1.4-2.3.8.5 0-.6-1.9-2.3-2-2-3.1-3.8-2.7-4.7.3-.8.1-1.5-.5-1.5s-.8-.9-.4-2c.3-1.1.2-2-.2-2-.5 0-1-2.7-1-6-.1-3.3.3-6 .8-6 .4 0 .6-.7.3-1.5-.4-.8-.1-1.5.6-1.5.6 0 .8-.5.4-1.2-.4-.6.1-1.7 1.1-2.5 1.1-.7 1.5-1.3 1.1-1.3-.5 0 0-.8 1.1-1.8 1-.9 1.3-1.3.6-.8-2.5 1.6-1.3 0 2.4-3.5 2.1-1.8 3.1-2.5 2.3-1.4-1.1 1.5-.9 1.5.7-.2 1.2-1.3 2.5-2.3 2.8-2.3 2.1.1 2.5-.1 2.1-.9-.8-1.2 2-2.2 4.1-1.4 1.1.4 1.4.3.9-.5-.5-.9.6-1 4-.5 3.4.4 4.5.3 4-.5-.4-.7-.1-1.2.9-1.2s1.3.5.9 1.2m-49.1 55.7c.5.1.5.5.2 1.1-.3.5-.1 1 .5 1s.9.4.6.9.1 1.2 1 1.5c.9.4 1.4.9 1.1 1.2-.4.5 4.4 5.2 10.1 10 .9.7-1.1 4.3-2 3.8-.7-.5-.9-.1-.5.9.3 1 .2 1.7-.4 1.7s-.7.4-.4 1c.3.5.2 1-.4 1s-.7.7-.4 1.7c.4 1.1.3 1.4-.5.9s-1-.2-.6.8c.3.9.1 1.6-.6 1.6-.6 0-.8.4-.5 1 .3.5.1 1-.5 1s-.9.4-.6.9c.9 1.4-.5 4.2-1.7 3.4-.6-.4-.8 0-.4 1 .3 1 .2 1.7-.3 1.7s-.6.7-.3 1.7c.4 1.1.3 1.4-.5.9-.8-.4-1-.2-.6.7.3.8-.2 2.1-1 3-.8.8-1.2 1.7-.9 2.1.4.3.1.6-.5.6s-.9.7-.5 1.7c.5 1.2.3 1.4-.7.8-.9-.5-1.1-.4-.6.4 1 1.5-1.3 7.3-2.5 6.5-.5-.3-.6.3-.2 1.2.4 1.2.3 1.5-.5 1s-1-.2-.6.8c.3.9.1 1.6-.5 1.6s-.8.7-.4 1.7c.4 1.1.3 1.4-.5.9s-1-.2-.6.8c.3.9.1 1.6-.5 1.6s-.8.7-.5 1.5c.4.8-.1 1.7-.9 2.1-.9.3-1.3 1.2-1 2.1.4 1.1.2 1.4-.5.9-.8-.5-1-.2-.6.8.3.9.1 1.6-.6 1.6-.6 0-.9.4-.6.9.9 1.4-.5 4.2-1.7 3.4-.6-.4-.8 0-.4 1 .3 1 .2 1.7-.4 1.7s-.7.4-.4 1c.3.5.1 1-.5 1s-.8.4-.5 1c.3.5.2 1-.4 1s-.8.7-.5 1.5c.4.8.1 1.5-.5 1.5s-.8.7-.5 1.5c.4.8-.1 1.7-.9 2.1-.9.3-1.3 1.2-1 2.1.5 1.2.3 1.4-.7.8s-1.2-.4-.7.8c.3 1 .2 1.7-.4 1.7s-.8.4-.5.9c1 1.6-2.3 2.1-3.8.5-.9-.8-1.8-1.5-2.1-1.4-2.1.1-2.5-.1-2-1 .4-.6-.1-.7-1.1-.3-1.2.4-1.5.3-1-.5s.2-1-.8-.6c-1.1.4-1.6 0-1.6-1 0-.9-.4-1.5-.9-1.3-.5.1-1.7-.7-2.6-1.8s-1.3-1.3-.9-.6c1.5 2.9-6.2-3.5-15.6-12.8-5.2-5.2-8.1-8.4-6.4-7 1.6 1.3.9.4-1.6-2.1-5.7-5.6-8.2-8.8-6-7.6.8.4.4-.2-1-1.4s-1.8-1.8-1-1.4 0-.7-1.8-2.5c-2.1-2.2-3.1-3.9-2.7-5 .3-.8.3-1.2-.1-.8-.9.9-4.6-5.1-3.9-6.4.4-.5 0-.9-.8-.9-1.5 0-4-6.8-3-8.3.4-.6.1-.7-.7-.2-1 .6-1.2.4-.7-.9.4-.9.3-1.5-.2-1.2-.4.3-1.3-.5-1.9-1.8-.9-1.9-.7-2.7.6-3.9.9-.8 2.3-1.2 3.1-.9.9.3 1.1 0 .6-.8-.6-1-.2-1.2 1.3-.8 1.4.4 2 .2 1.6-.4s.2-.8 1.6-.3c1.7.5 2.1.4 1.5-.6-.6-.9-.2-1.1 1.3-.7 1.2.4 2.2.2 2.2-.4s.7-.7 1.6-.4c1 .4 1.3.2.8-.6-.5-.7 0-.9 1.4-.6 1.2.4 2.2.2 2.2-.4s.7-.7 1.6-.4c1 .4 1.3.2.8-.6-.5-.7 0-.9 1.4-.6 1.2.4 2.2.2 2.2-.4s.7-.7 1.6-.4c1 .4 1.3.2.8-.6-.5-.7 0-.9 1.4-.6 1.2.4 2.2.2 2.2-.4s.9-.8 2-.5 2 .1 2-.5.7-.8 1.5-.4c.8.3 1.5.1 1.5-.4s.7-.6 1.7-.3c1.2.5 1.4.3.8-.7s-.3-1.2 1.3-.8c1.2.4 2.2.2 2.2-.4s.7-.7 1.6-.4c1 .4 1.3.2.8-.6-.5-.7 0-.9 1.4-.6 1.2.4 2.2.2 2.2-.4s.7-.7 1.6-.4c1 .4 1.3.2.8-.6q-.75-1.05 1.2-.6c1.1.3 2.6-.2 3.3-.9.7-.8 2.4-1.3 3.7-1 1.3.2 2.1 0 1.7-.6-.3-.5.3-.6 1.7-.2 1.7.5 2.1.4 1.5-.6-.6-.9-.2-1.1 1.3-.7 1.2.4 2.2.2 2.2-.4s.7-.7 1.6-.4c1 .4 1.3.2.8-.6-.5-.7 0-.9 1.4-.6 1.2.4 2.2.2 2.2-.4s.7-.7 1.6-.4c.8.3 1.2.2.9-.3-.7-1.2 2.2-2 5.5-1.6 1.4.2 2.9.4 3.3.4m99.8.1c.6 0 .7.4.4 1s.1.7.9.4c.9-.3 1.6-.2 1.6.4s1 .8 2.2.4c1.4-.3 1.9-.1 1.4.6-.5.8-.2 1 .8.6.9-.3 1.6-.2 1.6.4s1 .8 2.2.4c1.6-.4 1.9-.2 1.3.8s-.4 1.2.8.7c1-.3 1.7-.2 1.7.4s.9.8 2.1.4c1.6-.5 1.9-.4 1.4.5s-.1 1 1.5.5c1.4-.5 2-.3 1.6.3s.2.8 1.6.4c1.3-.3 1.9-.1 1.5.5-.5.7.1.9 1.5.5 1.3-.3 1.9-.1 1.5.5-.5.7.1.9 1.5.5 1.4-.3 1.9-.1 1.4.6-.5.8-.2 1 .8.6.9-.3 1.6-.1 1.6.5s.7.8 1.5.5c.8-.4 1.5-.2 1.5.4s1 .8 2.2.4c1.5-.4 1.9-.2 1.3.7-.6 1-.2 1.1 1.5.6 1.4-.5 2-.3 1.6.3s.2.8 1.4.5c1.1-.3 2-.1 2 .5s.9.8 2 .5c1.2-.3 2.2.1 2.6 1 .3.9 1.3 1.3 2.6.9 1.4-.3 1.9-.1 1.5.5-.5.7.1.9 1.5.5 1.5-.4 1.9-.2 1.3.7-.6 1-.2 1.1 1.5.6s2.1-.4 1.5.6c-.6.9-.3 1.1.8.6 1-.4 1.7-.2 1.7.4s.7.8 1.6.5c1.8-.7 11.4 2.2 11.4 3.5 0 .5.7.9 1.5.9s1.9.9 2.5 2c.8 1.4.8 2 0 2-.6 0-.8.4-.5 1 .3.5.2 1-.4 1s-.8.7-.5 1.5c.4.8.1 1.5-.6 1.5-.6 0-.8.4-.5 1 .3.5.1 1-.5 1s-.8.4-.5 1c.3.5.1 1-.5 1s-.8.4-.5 1c.3.5.1 1-.6 1s-1 .3-.6.6c.8.9-3.1 8.4-4.4 8.4-.6 0-.7.5-.4 1 .3.6-.1 1.3-.9 1.6-.9.3-1.4 1-1.1 1.4s-.2 1.1-1.1 1.4c-.9.4-1.4.9-1.1 1.3.4.3-.1 1.2-1.1 2-1 .9-1.1 1.2-.2.7 1.8-.9-1.1 2.9-5 6.5-1.4 1.3-1.8 2-1 1.5.8-.4-.1 1-2 3.2-1.9 2.3-3.8 3.9-4.1 3.8-.4-.2-1.5.6-2.5 1.9-1.6 1.8-1.6 1.9-.1.8 2.6-2.1 2-.7-1 2-1.4 1.3-2.2 1.7-1.8.9.5-.8-1.1.5-3.4 3-2.4 2.5-3.7 3.6-3 2.5s-.8.2-3.5 2.8c-2.6 2.7-5 4.6-5.3 4.3-.4-.3-1.3.3-2.1 1.5-.9 1.3-2 1.8-3 1.4-.9-.3-1.3-.3-.9.1 1.2 1.2-2.6 3.1-5.8 3-2.2-.1-3-.6-2.9-1.9.1-.9-.3-1.7-.8-1.7-.6 0-.7-.7-.4-1.6.4-.9.2-1.3-.5-.8-.7.4-1 .1-.7-.7s-.2-1.9-1-2.5c-.7-.5-1.5-2.2-1.5-3.6-.1-1.4-.6-2.4-1.1-2-.5.3-.6-.2-.3-1.2.4-1 .3-1.5-.3-1.1-.9.6-1.4-1-1.3-4.2.1-.7-.3-1.1-.7-.8-1 .6-2.2-2.4-1.4-3.6.3-.5.1-.9-.5-.9s-.7-.7-.4-1.7c.4-1 .2-1.4-.4-1-1.2.8-2.6-2-1.7-3.4.3-.5 0-.9-.6-.9s-.8-.5-.5-1c.3-.6.1-1-.5-1-.7 0-.9-.7-.6-1.6.4-1 .2-1.3-.6-.8s-.9.2-.5-.9c.4-1 .1-1.7-.5-1.7s-.9-.3-.5-.6c.3-.4-.1-1.3-.9-2.1-.8-.9-1.3-2.2-1-3 .4-.9.1-1.1-.5-.7-.7.4-1 .1-.7-.7s-.1-1.9-.8-2.4c-.8-.6-1.5-2.1-1.6-3.5-.2-1.4-.9-3.1-1.6-3.9-.7-.7-1.1-2-.8-2.8.4-.9.2-1.1-.6-.7-.8.5-.9.2-.5-.9.3-1 .2-1.7-.4-1.7s-.7-.5-.4-1c.3-.6.1-1-.5-1-.7 0-1-.6-.7-1.3.2-.6-.3-1.7-1.1-2.3-.7-.5-1.5-2.2-1.5-3.6-.1-1.4-.6-2.4-1.1-2-.5.3-.7-.2-.3-1.1.3-1 .3-1.7-.2-1.7-1.3 0-2.9-4.4-2.2-6.1.3-1 3.1-4.4 6.1-7.7 3.1-3.3 5.4-6.5 5.2-7.2-.3-.7 0-1 .6-.6.6.3 1.4.1 1.7-.5.4-.5 1.4-.8 2.2-.5s1.9.6 2.4.6m-44.8 27.5c.8.8 1.8 1.1 2.2.7.5-.4.5.1.2 1-.4 1-.2 1.8.4 1.8s.8.7.5 1.6c-.4 1-.2 1.3.6.8.7-.5.9-.2.5.9-.3.9.1 1.8 1 2.1.8.4 1.3 1.3.9 2.1-.3.8-.1 1.5.5 1.5s.9.7.5 1.5c-.3.8-.1 1.5.5 1.5s.7.4.4 1c-.3.5-.1 1 .5 1 .7 0 .9.7.6 1.6-.4 1-.2 1.3.6.8s.9-.2.5 1c-.4.9-.3 1.5.2 1.2 1.1-.7 3.3 5.3 2.4 6.7-.4.6-.1.7.7.2s1.1-.3.8.6c-.3.8.2 2 .9 2.8.8.7 1.2 2 .9 2.8-.4.9-.2 1.1.6.7.8-.5.9-.2.5 1-.4 1-.3 1.5.3 1.1.9-.6 1.4 1 1.3 4.2-.1.7.4 1 .9.7.6-.4.9-.1.6.7s.2 1.9 1 2.5c.7.5 1.5 2.2 1.5 3.6.1 1.4.6 2.4 1.1 2 .5-.3.7.2.3 1.1-.3 1-.2 1.7.3 1.7s.6.7.3 1.7c-.4 1-.2 1.4.4 1 1.2-.7 3.6 4 2.8 5.4-.4.5-.2.9.4.9s.7.7.4 1.7c-.4 1-.2 1.4.4 1 1.2-.7 3.6 4 2.8 5.4-.4.5-.1.9.5.9.7 0 .9.7.6 1.6-.4 1-.2 1.3.6.8s.9-.2.5.9c-.3 1-.2 1.7.4 1.7s.7.4.4 1c-.3.5-.2 1 .4 1s.7.7.4 1.7c-.4 1.1-.3 1.4.5.9.7-.4 1.2-.2 1.2.4 0 .7-.9 1.4-2 1.7s-1.7 1-1.4 1.5c.4.6-.2.8-1.5.3-1.3-.4-2.1-.2-2.1.5s-.8.9-2.1.5c-1.6-.5-1.9-.4-1.4.5s.2 1-1.4.5c-1.3-.4-2.1-.2-2.1.5s-.8.9-2.1.5c-1.5-.5-1.9-.4-1.4.4q.75 1.2-1.8.6c-1.4-.4-2.8-.2-3.1.4-.4.6-2.1.8-3.9.5-2.5-.4-2.9-.3-1.7.5 1.1.9-.3 1-5.6.5-4.8-.4-7.4-.3-7.8.5-.4.6-3.4 1.1-6.9 1-4.6 0-5.7-.3-4.2-1 1.3-.6-.1-.7-4.4-.3-4.9.5-6.2.3-5.6-.6s0-1-2.4-.5c-2.1.4-3.1.3-3.1-.5 0-.7-.8-.9-1.9-.5-2.5.8-7.3-.4-6.5-1.6.3-.6-.6-.7-2.2-.3-2 .5-2.5.4-1.9-.6.5-.9.2-1-1.4-.5-1.1.3-2.1.2-2.1-.3 0-.6-1-.8-2.1-.5-1.5.4-2.7 0-3.5-1.2-1.7-2.3-1.8-3.9-.2-2.9.8.5.9.2.5-.9-.3-1-.2-1.7.4-1.7s.8-.4.5-.9c-.8-1.3.4-4.2 1.5-3.5.5.3.6-.2.3-1-.3-.9-.1-1.6.6-1.6.6 0 .8-.5.5-1-.3-.6-.2-1 .4-1s.7-.7.4-1.7c-.4-1.1-.3-1.4.5-.9.8.4 1 .2.6-.7-.3-.8.2-2.1 1-3 .8-.8 1.2-1.7.9-2.1-.4-.3-.1-.6.6-.6s.9-.5.6-1c-.3-.6-.2-1 .3-1 .6 0 1-.6.9-1.3-.1-3.2.4-4.8 1.3-4.2.6.4.7-.1.3-1.1-.4-1.1-.3-1.5.4-1.1.7.5.9 0 .6-1.3-.3-1.2.1-2.2 1-2.6.9-.3 1.3-1.2 1-2.1-.5-1.2-.3-1.4.7-.8.8.5 1.1.4.7-.2-.9-1.4 1.3-7.4 2.4-6.7.5.3.6-.3.2-1.2-.3-1-.2-1.5.3-1.2.5.4 1-.6 1.1-2 0-1.4.8-3.1 1.5-3.6.8-.6 1.3-1.7 1.1-2.4-.3-.6 0-1.2.7-1.2.6 0 .8-.5.5-1-.3-.6-.1-1 .5-1s.8-.5.5-1c-.3-.6-.1-1 .5-1s.9-.4.6-.9c-.8-1.3 1.4-7.2 2.5-6.5.5.3.6-.3.2-1.2-.4-1.2-.3-1.5.5-1s1 .2.6-.8c-.3-.9-.1-1.6.6-1.6.6 0 .9-.4.6-.9-.9-1.4.5-4.2 1.7-3.4q.9.45.3-.6c-.9-1.4.2-5.3 1.4-4.6.4.3 1-.2 1.4-1 .8-2.1 13.8-2.1 15.9 0m-132.7 71.7 2.9 3.3-3.2-2.9c-3.1-2.8-3.8-3.6-3-3.6.2 0 1.6 1.5 3.3 3.2m250.4.1c0 .2-1 1.2-2.2 2.3l-2.3 1.9 1.9-2.3c1.8-2.1 2.6-2.7 2.6-1.9"/><path d="M447 426.4c0 .2.8 1 1.8 1.7 1.5 1.3 1.6 1.2.3-.4s-2.1-2.1-2.1-1.3m136.9-30.7c-1.3 1.6-1.2 1.7.4.4s2.1-2.1 1.3-2.1c-.2 0-1 .8-1.7 1.7m-15 13c-1.3 1.6-1.2 1.7.4.4.9-.7 1.7-1.5 1.7-1.7 0-.8-.8-.3-2.1 1.3m-21 18c-1.3 1.6-1.2 1.7.4.4.9-.7 1.7-1.5 1.7-1.7 0-.8-.8-.3-2.1 1.3M383 409.4c0 .2.8 1 1.8 1.7 1.5 1.3 1.6 1.2.3-.4s-2.1-2.1-2.1-1.3m-29.8 61.1c0 1.6.2 2.2.5 1.2.2-.9.2-2.3 0-3-.3-.6-.5.1-.5 1.8m-.1 26.1c0 1.1.3 1.4.6.6.3-.7.2-1.6-.1-1.9-.3-.4-.6.2-.5 1.3m239.3-71.4-1.9 2.3 2.3-1.9c2.1-1.8 2.7-2.6 1.9-2.6-.2 0-1.2 1-2.3 2.2m-22.5 19.5c-1.3 1.6-1.2 1.7.4.4.9-.7 1.7-1.5 1.7-1.7 0-.8-.8-.3-2.1 1.3M400 594.5c1.3 1.4 2.6 2.5 2.8 2.5.3 0-.5-1.1-1.8-2.5s-2.6-2.5-2.8-2.5c-.3 0 .5 1.1 1.8 2.5m136.4-71.3-2.9 3.3 3.3-2.9c1.7-1.7 3.2-3.1 3.2-3.3 0-.8-.8-.1-3.6 2.9m-41.6 16.5c1.2.2 3 .2 4 0 .9-.3-.1-.5-2.3-.4-2.2 0-3 .2-1.7.4M364.5 333.1c1.4.6.1.8-4.2.4-4.3-.3-6.3-.1-6.3.7 0 .7-1.8.9-5.7.5-4.1-.4-5.1-.3-3.3.4 1.7.6.2.7-5 .4s-7-.1-6 .6c1.1.7-.7.9-6 .9-14.9 0-16.1 0-15.4 1.2.5.8-.8.9-4.4.5-3.5-.4-5.2-.2-5.2.5s-1.7.8-5 .4c-3.5-.5-5-.3-5 .5s-1.7.9-5.7.5c-4.2-.4-5.2-.3-3.8.4 1.5.8.7.9-3.2.7-3.1-.3-5.4 0-5.6.6s-2.2 1.1-4.5 1.1c-2.3.1-4.2.5-4.2 1 0 .4-.7.5-1.6.2-1-.4-1.3-.2-.8.6.5.7 0 .9-1.4.6-1.4-.4-2-.2-1.5.5.4.7 0 .8-1.1.4-1.1-.5-1.5-.3-1 .5s.2.9-1 .5c-1-.4-1.5-.3-1.1.3.7 1.2-3.5 3.1-4.9 2.2-.5-.3-.7-.1-.4.4s-.6 1.8-2.1 2.9c-2.6 1.9-2.6 1.9-1.2 0 .8-1.1-.3-.1-2.3 2.3-2.2 2.4-4.3 3.9-4.9 3.5-.7-.3-.9-.3-.5.2.9.9-2.9 6-4.5 6-.7 0-1.3.6-1.3 1.2-.1.7-.2 1.8-.3 2.4 0 .5-.6.7-1.3.3s-.8-.3-.4.4c.4.6-.2 2-1.4 3.2-1.1 1.1-2 2.2-2 2.5v1.6c0 .5-.4.7-1 .4-.6-.4-.7.1-.3 1.1.4 1.2.3 1.5-.5 1-.8-.4-1-.2-.6.7.3.8-.1 2.1-.8 2.8-.7.8-1.4 2.5-1.6 3.9-.1 1.3-.8 2.8-1.5 3.2-.6.4-.8.8-.4.8.5 0 .2.7-.7 1.5-1 1.1-2.4 1.3-4.2.9-2.1-.5-2.5-.4-1.9.6s-.2 1.2-4.1.7c-3.4-.4-4.3-.3-2.9.4 1.6.7 1.2.8-1.7.6-2.1-.2-3.8.1-3.8.6s-.7.6-1.6.3c-.8-.3-1.2-.2-.9.4.5.9-1.7 1.4-3 .7-.2-.1-1 .7-1.8 1.7s-1.9 1.6-2.5 1.2c-.6-.3-1.4-.1-1.8.5-.5.8-.3.9.7.4.8-.5-.4.9-2.6 3s-4.3 3.8-4.8 3.7c-.4-.1-.6.1-.6.5.3 2-.2 3.4-1.1 2.8-.6-.4-.7.1-.3 1.1.4 1.1.3 1.5-.4 1.1-.7-.5-.9.1-.5 1.5.4 1.5.2 1.9-.7 1.3-1-.6-1.1-.2-.6 1.5.4 1.3.3 2-.2 1.7-.6-.4-.9 1.8-.9 5.3 0 3.2.5 5.6 1 5.3.5-.4.6.6.2 2.1-.5 2-.4 2.6.5 2q1.2-.75.6.9c-.3.9.1 1.8 1 2.1.9.4 1.3 1.3.9 2.2-.3.8-.2 1.2.4.9.9-.5 1.4.7 1.2 2.6-.1.4.8 1.5 1.8 2.4 1.1 1 2 1.5 2 1.1s.9-.2 2 .4 1.7 1.6 1.4 2.2c-.4.6-.3.8.3.5 1.3-.8 7.5 1.2 6.9 2.1-.2.4 4.1.7 9.5.7s9.9-.3 9.9-.8c0-1.2 3.4-.7 5.4.8 1.1.8 1.6 1.5 1.1 1.5s-.1.6 1 1.3c1.1.9 1.5 1.9 1 2.7q-.75 1.35.3.6c1.1-.7 1.7.7 1.2 2.9-.1.5.2.7.6.2.8-.8 4.5 4.3 3.9 5.4-.3.4.3 1.3 1.3 2 1.6 1.3 1.6 1.2.3-.6-1.3-1.9 3.5 3.3 6.9 7.3q1.35 1.5.6.3c-.5-.9.3-.3 1.8 1.2 1.4 1.5 2.6 2.5 2.6 2.2s1.3.2 2.9 1.1c1.7 1 2.8 2.1 2.5 2.6-.3.4.2.5 1 .2s2.3.3 3.4 1.4 2.3 1.8 2.5 1.5c.9-.8 4.8.8 4.2 1.7-.3.4.5.6 1.7.2 1.3-.3 1.9-.1 1.5.5-.5.7 0 .9 1.3.6 1.1-.3 2-.1 2 .4 0 .6 1.2.8 2.6.5 1.8-.3 2.5-.1 2 .6-.4.7.5.9 2.9.5 1.9-.3 3.5-.2 3.5.4 0 .5 3.4.9 7.5.9s7.5-.3 7.5-.8c0-.4.9-.8 2-.8 1.8 0 2-.7 2-7.8 0-5.6.3-7.3 1.1-6.2.7 1.1.8-.7.4-6-.5-5.6-.3-7.1.5-6s.9.6.4-2.1c-.3-2.1-.1-3.9.4-4.3.6-.4.8-2.2.5-4.3-.4-2.6-.3-3.4.5-2.9s1-.2.5-2.5c-.4-2.4-.3-3 .6-2.5.8.6 1 .1.5-1.8-.3-1.5-.2-2.6.4-2.6.5 0 .7-1.2.4-2.6-.3-1.8-.1-2.5.6-2 .6.4.8-.2.5-1.4-.3-1.1-.1-2 .5-2s.8-1 .4-2.2c-.4-1.6-.2-1.9.8-1.3s1.2.4.7-.8c-.3-1-.2-1.7.4-1.7.5 0 .7-1.1.3-2.4-.3-1.4 0-2.9.9-3.7.7-.8 1.2-2 .9-2.8s0-1.1.5-.8 1-.8 1-2.5.6-3.6 1.5-4.2c.8-.6 1.3-1.7 1-2.5-.3-.9 0-1.1.8-.6 1 .6 1.2.4.7-.8-.3-1-.2-1.7.4-1.7s.7-.5.4-1c-.3-.6-.2-1 .3-1 .6 0 1-.6.9-1.3-.1-3.3.4-4.7 1.8-4.7.9 0 1.2-.6.9-1.5-.4-.8.1-1.7 1-2.1.9-.3 1.3-1.1.9-1.7-.3-.5.2-1.6 1.1-2.3 1-.7 1.7-1.5 1.7-1.8-.3-2 0-2.6.9-2.1.5.3.7 0 .5-.8-.3-.7.5-2.5 1.9-4s2.2-2.7 1.9-2.7c-.4 0 .2-.7 1.3-1.6 1-.8 1.3-1.2.6-.9-1.1.6-1.1.3-.1-1.3.7-1.2 1.7-1.8 2.3-1.5.5.3.6.1.2-.6-.5-.7.6-2.4 2.6-4.3 1.8-1.7 2.6-2.8 1.8-2.4s-.4-.2 1-1.4 1.8-1.9 1-1.5c-.8.3.1-.8 2-2.6 1.9-1.7 2.8-2.8 2-2.5-.8.4.1-.7 2-2.5 1.9-1.7 2.8-2.8 2-2.4s1.4-2 5-5.4c3.6-3.3 6.1-6 5.5-6.1-.5 0 1.1-2 3.5-4.5 2.4-2.4 4.8-4.1 5.3-3.8.6.3.7.2.4-.4-.3-.5-2.3-1-4.4-1.1-3.1 0-3.4.1-1.8.9m-3.5 9.2c0 .2-1.2 1.4-2.7 2.8l-2.8 2.4 2.4-2.8c2.3-2.5 3.1-3.2 3.1-2.4M188.1 444.7c1.3 1.6 1.2 1.7-.3.4-1-.7-1.8-1.5-1.8-1.7 0-.8.8-.3 2.1 1.3"/><path d="M269.8 342.7c.7.3 1.6.2 1.9-.1.4-.3-.2-.6-1.3-.5-1.1 0-1.4.3-.6.6m110.1 7c-1.3 1.6-1.2 1.7.4.4.9-.7 1.7-1.5 1.7-1.7 0-.8-.8-.3-2.1 1.3m-174.1 104c1.2.2 3 .2 4 0 .9-.3-.1-.5-2.3-.4-2.2 0-3 .2-1.7.4m467.4 47.8c0 1.6.2 2.2.5 1.2.2-.9.2-2.3 0-3-.3-.6-.5.1-.5 1.8m-369.7 32.8c-1.1 1.1-1.3 1.7-.5 1.3s.1.5-1.5 2.1c-1.7 1.5-2.4 2.3-1.6 1.8.8-.6 0 .9-1.9 3.2-1.8 2.4-3.5 4.3-3.8 4.3-.2 0 .2-.8.9-1.8q1.95-2.25-.3-.3c-1 .7-1.6 1.7-1.3 2.1.3.5-1.2 2.3-3.2 4-2.1 1.8-3.1 2.9-2.3 2.5 1.6-.9-.6 1.9-5.4 7-1.9 1.9-2.3 2.1-1 .5l1.9-2.5-2.2 1.9c-1.2 1-2.1 2.2-2 2.7.3 1.1-21.4 22.9-22.3 22.4-.4-.2-1.8.8-3.1 2.3l-2.4 2.7 2.6-2c1.4-1.1.5-.1-2 2.2s-4.8 4-5.2 3.7c-.4-.2-1.3.4-2 1.4-1.3 1.5-1.2 1.6.4.3.9-.7 1.7-1.1 1.7-.9 0 .3-1.9 2-4.2 3.8-2.4 1.9-3.6 2.5-2.8 1.5.8-1.1-.4 0-2.7 2.3-2.3 2.4-4.6 4.1-5.2 3.8-.5-.4-1.3-.1-1.7.5-.4.8-.3.9.4.5 2.4-1.5 1.1.2-1.4 1.9-1.8 1.2-2.4 1.3-1.9.4.4-.8-.3-.2-1.6 1.2s-3.3 3.2-4.3 4c-1.7 1.2-1.9 1.2-1.2-.1.4-.8-.2-.4-1.4 1s-1.9 1.8-1.5 1-.3-.4-1.5 1-1.8 1.8-1.4 1-.7 0-2.5 1.7c-1.8 1.8-3.7 3.3-4.2 3.3h-1.4c-.3 0-1.4.9-2.5 2-1.2 1.2-2.5 1.8-2.9 1.5-.5-.2-1.2.2-1.5 1.1-.4 1-1.2 1.4-2.3 1-1-.4-1.4-.4-1 0 .9.9-5.1 4.6-6.3 3.9-.4-.3-1.1.2-1.4 1.1s-1.3 1.4-2 1.1c-.8-.3-1.7.1-2 1-.4.8-1.3 1.3-2.1.9-.8-.3-1.5-.1-1.5.4 0 1.2-6.9 4.2-8.1 3.4-.5-.3-.9 0-.9.7s-.3 1-.6.6c-.4-.3-1.3.1-2.1.9-.9.8-2.2 1.3-3 1s-1.1-.1-.8.4c.6.9-1 1.4-4.2 1.3-.7-.1-1 .4-.6 1s-.2.8-1.5.5c-1.2-.4-2.2-.2-2.2.4s-.7.7-1.6.4c-1-.4-1.3-.2-.8.6.5.7 0 .9-1.4.6-1.4-.4-2-.2-1.5.5.4.6-.2.8-1.5.5-1.4-.4-2-.2-1.5.5.4.6-.1.8-1.3.5-1.1-.3-2.6.2-3.3.9-.7.8-2.3 1.3-3.5 1.1-1.2-.3-2.8.2-3.5 1-.9.9-2.4 1.2-4.3.8-2-.4-2.7-.2-2.2.6s-.4.9-3.4.5c-2.5-.5-4.3-.3-4.8.4-.3.6-1.5.9-2.5.6-1.1-.3-1.9-.1-1.9.5s-.6.8-1.4.5c-1-.4-1.8.4-2.5 2.4s-.7 2.9.1 2.9c.5 0 .7.7.4 1.6-.3.8-.2 1.3.3 1s1.2.1 1.5 1c.4 1 .2 1.3-.7.9-.6-.4-.3.1.7.9 1.1.9 1.7 1.6 1.3 1.6-.3 0 1.5 2.2 4.2 5 2.6 2.7 4.6 5.2 4.2 5.5-.3.3.3.3 1.3-.1 1.1-.4 1.7-.3 1.4.2-.4.5 3.8.9 9.8 1 5.7 0 10.4-.4 10.4-.9s1.8-.6 4.1-.2c3.2.6 4 .4 3.4-.5-.6-1 .1-1.2 3.4-.6 3.1.5 4.1.3 3.5-.5-.5-.9.4-1 3.2-.5 3 .5 3.6.4 2.4-.4-1.2-.9-.7-1.1 2.3-.6 2.2.3 3.7.1 3.7-.6 0-.6 1.1-.8 2.8-.4 2.1.5 2.4.4 1.2-.5-1.2-.8-.8-.9 1.8-.5 2.3.4 3.1.2 2.6-.6-.5-.7.1-.9 1.9-.6 1.6.3 2.4.1 2-.5s.4-.7 2.1-.3c1.6.4 2.6.2 2.6-.5 0-.6.7-.8 1.6-.5.8.3 1.3.2 1-.3-.7-1 5.2-2.4 6.5-1.5.5.3.9 0 .9-.6 0-.7.7-.9 1.6-.6 1 .4 1.3.2.8-.6-.5-.7 0-.9 1.4-.6 1.4.4 2 .2 1.5-.5-.4-.6.2-.8 1.5-.5 1.2.4 2.2.2 2.2-.4s.7-.8 1.5-.4c.8.3 1.5.1 1.5-.5s.7-.9 1.5-.5c.8.3 1.5.1 1.5-.5s.7-.8 1.6-.5c1 .4 1.3.2.8-.6s-.2-.9.9-.5c1 .4 1.7.2 1.7-.4s.7-.8 1.6-.5c.8.3 1.2.2.9-.4-.6-.9 1-1.4 4.2-1.3.7.1 1-.4.6-1s0-.8 1-.4 1.7.2 1.7-.4.7-.8 1.6-.5c.9.4 1.3.2.8-.5-.4-.7-.1-1 .7-.7s1.9-.2 2.5-1c.5-.7 2.2-1.5 3.6-1.5 1.4-.1 2.4-.6 2-1.1-.3-.5.2-.6 1.2-.3.9.4 1.5.3 1.2-.2-.7-1.1 2.2-2.3 3.5-1.5.5.3.9 0 .9-.6s.5-.8 1-.5c.6.3 1 .1 1-.5s.5-.8 1-.5c.6.3 1 .2 1-.4 0-1.2 6-4.2 7.1-3.5.5.3.9.1.9-.5s1.4-1.7 3-2.6c1.7-.9 3-1.2 3-.8s.6-.1 1.3-1.2c.9-1.1 1.9-1.5 2.7-1s1.1.4.6-.3c-.6-1 3-2.8 4.7-2.4.5.1.5-.3.1-.9-.5-.9-.2-1 1-.6 1 .4 1.5.3 1.1-.3-.6-.9.8-1.4 2.8-1.1.4 0 .7-.3.7-.8 0-1.1 5-4.4 6.7-4.4.7 0 1.3-.4 1.3-.9s.5-.6 1-.3c.6.3 1-.1 1-1 0-1.1.5-1.5 1.5-1.1.8.3 1.4 0 1.2-.7-.1-.7.6-1.1 1.5-1.1 1 .1 1.5-.2 1.2-.7-.5-.8 1-1.3 2.9-1 .5.1.6-.2.3-.7-.2-.4.4-1.4 1.6-2.1 1.6-1 1.9-1 1.3.1-.4.7.3.1 1.6-1.3s3.3-3.2 4.3-4c1.7-1.2 1.9-1.2 1.2.1-.4.8.4 0 1.9-1.8s3.3-3.1 4.1-2.8c.7.3 1.6 0 2-.6.4-.7.3-.8-.4-.4-2.4 1.5-1.1-.2 1.4-1.9 1.8-1.2 2.4-1.3 1.9-.4-.4.8.5 0 2-1.6 1.4-1.7 2.3-2.3 1.9-1.5-.5.8.9-.2 2.9-2.2 2.1-2.1 4.2-3.7 4.8-3.5 1.6.3 1.9-3.1.4-3.7-.8-.3-1.9-1.5-2.5-2.7-1-1.7-.9-2 .2-1.4.7.3.4-.1-.6-.9-1.1-.9-1.6-1.6-1.1-1.6s0-.7-1.1-1.6c-1-.8-1.2-1.3-.4-.9s.4-.2-.9-1.3c-1.5-1.2-2.1-2.4-1.6-3.2q.75-1.35-.3-.6c-1.1.6-1.3.2-1.2-1.9.1-.3-.6-1.3-1.5-2.1-.8-.9-1.3-2-1-2.5.4-.5.1-.9-.5-.9s-1.5-1.2-2.1-2.8c-.6-1.5-1.7-4-2.4-5.6-.8-1.6-1.3-3.2-1-3.6s-.2-1.1-1.1-1.4c-1-.4-1.4-1.4-1.1-2.6.3-1.1.1-2-.4-2-.4 0-.5-.7-.2-1.7.5-1.2.3-1.4-.7-.8s-1.2.4-.7-.8c.4-1 .2-1.7-.4-1.7s-.8-.7-.5-1.6c.4-1 .2-1.3-.6-.8-.7.5-.9 0-.6-1.4.4-1.2.2-2.2-.3-2.2-.4 0-.5-.7-.2-1.7.5-1.2.3-1.4-.7-.8s-1.2.3-.8-1.3c.4-1.2.2-2.2-.4-2.2-.5 0-.6-1-.3-2.1.5-1.4.3-1.9-.3-1.5-.6.3-1.2 0-1.4-.7-.2-1.1-.8-.9-2.3.6m52.5 60.1c0 .2.8 1 1.8 1.7 1.5 1.3 1.6 1.2.3-.4s-2.1-2.1-2.1-1.3m-243.5 65.7c-.4.6-.5 1.2-.2 1.5.2.3.7-.2 1-1.1.7-1.7.1-2-.8-.4"/></g><path fill="#BF8080" d="M894.8 270.7c.7.3 1.6.2 1.9-.1.4-.3-.2-.6-1.3-.5-1.1 0-1.4.3-.6.6m-557 65c.7.3 1.6.2 1.9-.1.4-.3-.2-.6-1.3-.5-1.1 0-1.4.3-.6.6m-40 4c.7.3 1.6.2 1.9-.1.4-.3-.2-.6-1.3-.5-1.1 0-1.4.3-.6.6m217 2c.7.3 1.6.2 1.9-.1.4-.3-.2-.6-1.3-.5-1.1 0-1.4.3-.6.6m-4.7 2.9c0 1.1.3 1.4.6.6.3-.7.2-1.6-.1-1.9-.3-.4-.6.2-.5 1.3m152.7 9.1c.6.2 1.8.2 2.5 0 .6-.3.1-.5-1.3-.5s-1.9.2-1.2.5M429.5 356c-.3.6.1.7.9.4 1.8-.7 2.1-1.4.7-1.4-.6 0-1.3.4-1.6 1m165 23c1 1.1 2 2 2.3 2s-.3-.9-1.3-2-2-2-2.3-2 .3.9 1.3 2m-84.3 39.5c0 1.6.2 2.2.5 1.2.2-.9.2-2.3 0-3-.3-.6-.5.1-.5 1.8m-331 7c0 1.6.2 2.2.5 1.2.2-.9.2-2.3 0-3-.3-.6-.5.1-.5 1.8m330.9 1.1c0 1.1.3 1.4.6.6.3-.7.2-1.6-.1-1.9-.3-.4-.6.2-.5 1.3m240.7 7.1c.7.3 1.6.2 1.9-.1.4-.3-.2-.6-1.3-.5-1.1 0-1.4.3-.6.6m-64.7 8.9c0 1.1.3 1.4.6.6.3-.7.2-1.6-.1-1.9-.3-.4-.6.2-.5 1.3m-381 1c0 1.1.3 1.4.6.6.3-.7.2-1.6-.1-1.9-.3-.4-.6.2-.5 1.3M193 449.4c0 .2.7.7 1.6 1 .8.3 1.2.2.9-.4-.6-1-2.5-1.4-2.5-.6m109.1 12.2c0 1.1.3 1.4.6.6.3-.7.2-1.6-.1-1.9-.3-.4-.6.2-.5 1.3m371.2 14.9c0 2.7.2 3.8.4 2.2.2-1.5.2-3.7 0-5-.2-1.2-.4 0-.4 2.8m-354.2 1.1c0 1.1.3 1.4.6.6.3-.7.2-1.6-.1-1.9-.3-.4-.6.2-.5 1.3m.2 7.9c0 2.2.2 3 .4 1.7.2-1.2.2-3 0-4-.3-.9-.5.1-.4 2.3m-19.2 1.1c0 1.1.3 1.4.6.6.3-.7.2-1.6-.1-1.9-.3-.4-.6.2-.5 1.3m225 1c0 1.1.3 1.4.6.6.3-.7.2-1.6-.1-1.9-.3-.4-.6.2-.5 1.3m-238.8 5.1c.9.2 2.3.2 3 0 .6-.3-.1-.5-1.8-.5-1.6 0-2.2.2-1.2.5m386.9 3.3c0 1.9.2 2.7.5 1.7.2-.9.2-2.5 0-3.5-.3-.9-.5-.1-.5 1.8m-32.1 3.6c0 1.1.3 1.4.6.6.3-.7.2-1.6-.1-1.9-.3-.4-.6.2-.5 1.3m-35.3 32.1c.7.3 1.6.2 1.9-.1.4-.3-.2-.6-1.3-.5-1.1 0-1.4.3-.6.6M575.5 646c-.3.6.1.7.9.4 1.8-.7 2.1-1.4.7-1.4-.6 0-1.3.4-1.6 1m-126.7 11.7c.7.3 1.6.2 1.9-.1.4-.3-.2-.6-1.3-.5-1.1 0-1.4.3-.6.6M536 660c-.9.6-1 1-.3 1 .6 0 1.5-.5 1.8-1 .8-1.2.4-1.2-1.5 0m-47.2 4.7c.7.3 1.6.2 1.9-.1.4-.3-.2-.6-1.3-.5-1.1 0-1.4.3-.6.6m16 0c.6.2 1.8.2 2.5 0 .6-.3.1-.5-1.3-.5s-1.9.2-1.2.5m-364.5 18c.9.2 2.3.2 3 0 .6-.3-.1-.5-1.8-.5-1.6 0-2.2.2-1.2.5"/><path fill="#BF4000" d="M674.1 493.6c0 1.1.3 1.4.6.6.3-.7.2-1.6-.1-1.9-.3-.4-.6.2-.5 1.3"/><path fill="#BF4040" d="M807.8 285.7c.7.3 1.6.2 1.9-.1.4-.3-.2-.6-1.3-.5-1.1 0-1.4.3-.6.6m-129 18c.7.3 1.6.2 1.9-.1.4-.3-.2-.6-1.3-.5-1.1 0-1.4.3-.6.6m-327 30c.7.3 1.6.2 1.9-.1.4-.3-.2-.6-1.3-.5-1.1 0-1.4.3-.6.6m13.7 4.5-4 4.3 4.3-4c2.3-2.1 4.2-4 4.2-4.2 0-.8-.9 0-4.5 3.9m-34.7-2.5c.7.3 1.6.2 1.9-.1.4-.3-.2-.6-1.3-.5-1.1 0-1.4.3-.6.6m-40 4c.7.3 1.6.2 1.9-.1.4-.3-.2-.6-1.3-.5-1.1 0-1.4.3-.6.6M618 353.5c1.3 1.4 2.6 2.5 2.8 2.5.3 0-.5-1.1-1.8-2.5s-2.6-2.5-2.8-2.5c-.3 0 .5 1.1 1.8 2.5m-376.1 4.2c-1.3 1.6-1.2 1.7.4.4.9-.7 1.7-1.5 1.7-1.7 0-.8-.8-.3-2.1 1.3m380.1-.3c0 .2.8 1 1.8 1.7 1.5 1.3 1.6 1.2.3-.4s-2.1-2.1-2.1-1.3m-409.2 36.3c.7.3 1.6.2 1.9-.1.4-.3-.2-.6-1.3-.5-1.1 0-1.4.3-.6.6m686.5 1c.9.2 2.3.2 3 0 .6-.3-.1-.5-1.8-.5-1.6 0-2.2.2-1.2.5M516 464.4c0 .2.8 1 1.8 1.7 1.5 1.3 1.6 1.2.3-.4s-2.1-2.1-2.1-1.3M319.2 471c0 1.4.2 1.9.5 1.2.2-.6.2-1.8 0-2.5-.3-.6-.5-.1-.5 1.3m321.9 6.6c0 1.1.3 1.4.6.6.3-.7.2-1.6-.1-1.9-.3-.4-.6.2-.5 1.3m33.2 7.4c0 4.1.2 5.8.4 3.7.2-2 .2-5.4 0-7.5-.2-2-.4-.3-.4 3.8m-122.1-3c0 1.4.2 1.9.5 1.2.2-.6.2-1.8 0-2.5-.3-.6-.5-.1-.5 1.3m-233 19c0 1.4.2 1.9.5 1.2.2-.6.2-1.8 0-2.5-.3-.6-.5-.1-.5 1.3m156.8 2.4c0 .2.8 1 1.8 1.7 1.5 1.3 1.6 1.2.3-.4s-2.1-2.1-2.1-1.3m-20 19c0 .2.8 1 1.8 1.7 1.5 1.3 1.6 1.2.3-.4s-2.1-2.1-2.1-1.3m-179.6 42.8-1.9 2.3 2.3-1.9c2.1-1.8 2.7-2.6 1.9-2.6-.2 0-1.2 1-2.3 2.2m-18.5 18.5c-1.3 1.6-1.2 1.7.4.4s2.1-2.1 1.3-2.1c-.2 0-1 .8-1.7 1.7m134.1 2.6c0 .2 1.5 1.6 3.3 3.3l3.2 2.9-2.9-3.3c-2.8-3-3.6-3.7-3.6-2.9m-27 19.1c0 .2.8 1 1.8 1.7 1.5 1.3 1.6 1.2.3-.4s-2.1-2.1-2.1-1.3m259.9 4.3c-1.3 1.6-1.2 1.7.4.4.9-.7 1.7-1.5 1.7-1.7 0-.8-.8-.3-2.1 1.3M376.5 617c1 1.1 2 2 2.3 2s-.3-.9-1.3-2-2-2-2.3-2 .3.9 1.3 2m240.4.7c-1.3 1.6-1.2 1.7.4.4s2.1-2.1 1.3-2.1c-.2 0-1 .8-1.7 1.7m-122.6 14c1.5.2 3.9.2 5.5 0 1.5-.2.2-.4-2.8-.4s-4.3.2-2.7.4m-12.5 33c.7.3 1.6.2 1.9-.1.4-.3-.2-.6-1.3-.5-1.1 0-1.4.3-.6.6"/><path fill="#FF8080" d="M672.1 462.6c0 1.1.3 1.4.6.6.3-.7.2-1.6-.1-1.9-.3-.4-.6.2-.5 1.3"/><path fill="#BFBF80" d="M901.5 274c1 1.1 2 2 2.3 2s-.3-.9-1.3-2-2-2-2.3-2 .3.9 1.3 2m-26.7 2.7c.7.3 1.6.2 1.9-.1.4-.3-.2-.6-1.3-.5-1.1 0-1.4.3-.6.6m-26 4c.6.2 1.8.2 2.5 0 .6-.3.1-.5-1.3-.5s-1.9.2-1.2.5m-7 1c.7.3 1.6.2 1.9-.1.4-.3-.2-.6-1.3-.5-1.1 0-1.4.3-.6.6m-6.5 1c.9.2 2.3.2 3 0 .6-.3-.1-.5-1.8-.5-1.6 0-2.2.2-1.2.5m-6.5 1c.7.3 1.6.2 1.9-.1.4-.3-.2-.6-1.3-.5-1.1 0-1.4.3-.6.6m-8 1c.6.2 1.8.2 2.5 0 .6-.3.1-.5-1.3-.5s-1.9.2-1.2.5m-43 6c.7.3 1.6.2 1.9-.1.4-.3-.2-.6-1.3-.5-1.1 0-1.4.3-.6.6m129.3 1.9c0 1.1.3 1.4.6.6.3-.7.2-1.6-.1-1.9-.3-.4-.6.2-.5 1.3m-143.3.1c.6.2 1.8.2 2.5 0 .6-.3.1-.5-1.3-.5s-1.9.2-1.2.5m-7 1c.6.2 1.8.2 2.5 0 .6-.3.1-.5-1.3-.5s-1.9.2-1.2.5m-7 1c.7.3 1.6.2 1.9-.1.4-.3-.2-.6-1.3-.5-1.1 0-1.4.3-.6.6m-7 1c.6.2 1.8.2 2.5 0 .6-.3.1-.5-1.3-.5s-1.9.2-1.2.5m-8 1c.6.2 1.8.2 2.5 0 .6-.3.1-.5-1.3-.5s-1.9.2-1.2.5m-7 1c.7.3 1.6.2 1.9-.1.4-.3-.2-.6-1.3-.5-1.1 0-1.4.3-.6.6m-7 1c.6.2 1.8.2 2.5 0 .6-.3.1-.5-1.3-.5s-1.9.2-1.2.5m-7 1c.7.3 1.6.2 1.9-.1.4-.3-.2-.6-1.3-.5-1.1 0-1.4.3-.6.6m-7 1c.6.2 1.8.2 2.5 0 .6-.3.1-.5-1.3-.5s-1.9.2-1.2.5m-21 3c.7.3 1.6.2 1.9-.1.4-.3-.2-.6-1.3-.5-1.1 0-1.4.3-.6.6m-8 1c.7.3 1.6.2 1.9-.1.4-.3-.2-.6-1.3-.5-1.1 0-1.4.3-.6.6m-181.5 2c1.5.2 3.7.2 5 0 1.2-.2 0-.4-2.8-.4-2.7 0-3.8.2-2.2.4m8.5 0c.7.3 1.6.2 1.9-.1.4-.3-.2-.6-1.3-.5-1.1 0-1.4.3-.6.6m-23.5 1c.9.2 2.3.2 3 0 .6-.3-.1-.5-1.8-.5-1.6 0-2.2.2-1.2.5m175.5 0c.7.3 1.6.2 1.9-.1.4-.3-.2-.6-1.3-.5-1.1 0-1.4.3-.6.6m-184 1c.6.2 1.8.2 2.5 0 .6-.3.1-.5-1.3-.5s-1.9.2-1.2.5m175.5 0c.9.2 2.5.2 3.5 0 .9-.3.1-.5-1.8-.5s-2.7.2-1.7.5m-6.5 1c.7.3 1.6.2 1.9-.1.4-.3-.2-.6-1.3-.5-1.1 0-1.4.3-.6.6m-180 1c.7.3 1.6.2 1.9-.1.4-.3-.2-.6-1.3-.5-1.1 0-1.4.3-.6.6m158 2c.7.3 1.6.2 1.9-.1.4-.3-.2-.6-1.3-.5-1.1 0-1.4.3-.6.6m-14.5 2c.9.2 2.3.2 3 0 .6-.3-.1-.5-1.8-.5-1.6 0-2.2.2-1.2.5m-7.8 1.2c-.3.5 0 1.3.6 1.7.7.4.9.3.5-.4-.3-.6.2-1.3 1.1-1.5 1.6-.4 1.6-.5.1-.6-.9 0-1.9.3-2.3.8m271.3-.2c.7.3 1.6.2 1.9-.1.4-.3-.2-.6-1.3-.5-1.1 0-1.4.3-.6.6m-6 1c.7.3 1.6.2 1.9-.1.4-.3-.2-.6-1.3-.5-1.1 0-1.4.3-.6.6m-287.1 7.4c.7.7 1.5 1 1.8.7s-.2-.9-1.2-1.2c-1.4-.6-1.5-.5-.6.5m249.1-.4c.7.3 1.6.2 1.9-.1.4-.3-.2-.6-1.3-.5-1.1 0-1.4.3-.6.6m-215.8.7c0 .2.8 1 1.8 1.7 1.5 1.3 1.6 1.2.3-.4s-2.1-2.1-2.1-1.3m194.8 3.3c.7.3 1.6.2 1.9-.1.4-.3-.2-.6-1.3-.5-1.1 0-1.4.3-.6.6m-189.8.7c0 .2.8 1 1.8 1.7 1.5 1.3 1.6 1.2.3-.4s-2.1-2.1-2.1-1.3m177.8 1.3c.7.3 1.6.2 1.9-.1.4-.3-.2-.6-1.3-.5-1.1 0-1.4.3-.6.6m-11 2c.7.3 1.6.2 1.9-.1.4-.3-.2-.6-1.3-.5-1.1 0-1.4.3-.6.6m-161.8.7c0 .2.8 1 1.8 1.7 1.5 1.3 1.6 1.2.3-.4s-2.1-2.1-2.1-1.3m-259.2 1.3c.6.2 1.8.2 2.5 0 .6-.3.1-.5-1.3-.5s-1.9.2-1.2.5m8.1 1c-1.3 1.6-1.2 1.7.4.4.9-.7 1.7-1.5 1.7-1.7 0-.8-.8-.3-2.1 1.3m402.9-1c.7.3 1.6.2 1.9-.1.4-.3-.2-.6-1.3-.5-1.1 0-1.4.3-.6.6m-421 1c.6.2 1.8.2 2.5 0 .6-.3.1-.5-1.3-.5s-1.9.2-1.2.5m-9 1c.7.3 1.6.2 1.9-.1.4-.3-.2-.6-1.3-.5-1.1 0-1.4.3-.6.6m22.1 4-2.4 2.8 2.8-2.4c2.5-2.3 3.2-3.1 2.4-3.1-.2 0-1.4 1.2-2.8 2.7m265.1.8c1.9 1.9 3.6 3.5 3.9 3.5s-1-1.6-2.9-3.5-3.6-3.5-3.9-3.5 1 1.6 2.9 3.5m-319.2-1.8c.6.2 1.8.2 2.5 0 .6-.3.1-.5-1.3-.5s-1.9.2-1.2.5m435 0c.7.3 1.6.2 1.9-.1.4-.3-.2-.6-1.3-.5-1.1 0-1.4.3-.6.6m-454.5 2c.9.2 2.3.2 3 0 .6-.3-.1-.5-1.8-.5-1.6 0-2.2.2-1.2.5m-9.5 1c.7.3 1.6.2 1.9-.1.4-.3-.2-.6-1.3-.5-1.1 0-1.4.3-.6.6m196 0c.6.2 1.8.2 2.5 0 .6-.3.1-.5-1.3-.5s-1.9.2-1.2.5m42 0c.7.3 1.6.2 1.9-.1.4-.3-.2-.6-1.3-.5-1.1 0-1.4.3-.6.6m-245 1c.7.3 1.6.2 1.9-.1.4-.3-.2-.6-1.3-.5-1.1 0-1.4.3-.6.6m115.1 1c-1.3 1.6-1.2 1.7.4.4.9-.7 1.7-1.5 1.7-1.7 0-.8-.8-.3-2.1 1.3m145.9 1c.7.3 1.6.2 1.9-.1.4-.3-.2-.6-1.3-.5-1.1 0-1.4.3-.6.6m73.2-.3c0 .2.8 1 1.8 1.7 1.5 1.3 1.6 1.2.3-.4s-2.1-2.1-2.1-1.3m104.8.3c.7.3 1.6.2 1.9-.1.4-.3-.2-.6-1.3-.5-1.1 0-1.4.3-.6.6m-6 1c.6.2 1.8.2 2.5 0 .6-.3.1-.5-1.3-.5s-1.9.2-1.2.5m-68.3 3.3c1 1.1 2 2 2.3 2s-.3-.9-1.3-2-2-2-2.3-2 .3.9 1.3 2m58.3-1.3c.7.3 1.6.2 1.9-.1.4-.3-.2-.6-1.3-.5-1.1 0-1.4.3-.6.6m-314.9 2c-1.3 1.6-1.2 1.7.4.4.9-.7 1.7-1.5 1.7-1.7 0-.8-.8-.3-2.1 1.3m308.9-1c.7.3 1.6.2 1.9-.1.4-.3-.2-.6-1.3-.5-1.1 0-1.4.3-.6.6m-5 1c.7.3 1.6.2 1.9-.1.4-.3-.2-.6-1.3-.5-1.1 0-1.4.3-.6.6m-66.3 5.3c2.7 2.7 5.1 5 5.4 5s-1.7-2.3-4.4-5c-2.7-2.8-5.1-5-5.4-5s1.7 2.2 4.4 5m-370.6-1.3c-1.3 1.6-1.2 1.7.4.4.9-.7 1.7-1.5 1.7-1.7 0-.8-.8-.3-2.1 1.3m403.9 2c.7.3 1.6.2 1.9-.1.4-.3-.2-.6-1.3-.5-1.1 0-1.4.3-.6.6m-304.9 2c-1.3 1.6-1.2 1.7.4.4.9-.7 1.7-1.5 1.7-1.7 0-.8-.8-.3-2.1 1.3m163.4 2.3c0 2.5.2 3.5.4 2.2.2-1.2.2-3.2 0-4.5-.2-1.2-.4-.2-.4 2.3m-268.4-1.3c-1.3 1.6-1.2 1.7.4.4.9-.7 1.7-1.5 1.7-1.7 0-.8-.8-.3-2.1 1.3m102 3c-1.3 1.6-1.2 1.7.4.4.9-.7 1.7-1.5 1.7-1.7 0-.8-.8-.3-2.1 1.3m529.9-1c.7.3 1.6.2 1.9-.1.4-.3-.2-.6-1.3-.5-1.1 0-1.4.3-.6.6m-10 2c.7.3 1.6.2 1.9-.1.4-.3-.2-.6-1.3-.5-1.1 0-1.4.3-.6.6m-500.4 4.5-1.9 2.3 2.3-1.9c2.1-1.8 2.7-2.6 1.9-2.6-.2 0-1.2 1-2.3 2.2m-129.5.5c-1.3 1.6-1.2 1.7.4.4s2.1-2.1 1.3-2.1c-.2 0-1 .8-1.7 1.7m687.2.9c0 1.1.3 1.4.6.6.3-.7.2-1.6-.1-1.9-.3-.4-.6.2-.5 1.3m-515.2 3.1c-1.3 1.6-1.2 1.7.4.4.9-.7 1.7-1.5 1.7-1.7 0-.8-.8-.3-2.1 1.3m-47 1c-1.3 1.6-1.2 1.7.4.4.9-.7 1.7-1.5 1.7-1.7 0-.8-.8-.3-2.1 1.3m456.9 0c.7.3 1.6.2 1.9-.1.4-.3-.2-.6-1.3-.5-1.1 0-1.4.3-.6.6m-305.7 2.9c0 1.1.3 1.4.6.6.3-.7.2-1.6-.1-1.9-.3-.4-.6.2-.5 1.3m-110.2 1.1c-1.3 1.6-1.2 1.7.4.4.9-.7 1.7-1.5 1.7-1.7 0-.8-.8-.3-2.1 1.3m523.2 2.9c0 1.1.3 1.4.6.6.3-.7.2-1.6-.1-1.9-.3-.4-.6.2-.5 1.3m-141.3.1c.7.3 1.6.2 1.9-.1.4-.3-.2-.6-1.3-.5-1.1 0-1.4.3-.6.6M399 386.4c0 .2.8 1 1.8 1.7 1.5 1.3 1.6 1.2.3-.4s-2.1-2.1-2.1-1.3m194.9 1.3c-1.3 1.6-1.2 1.7.4.4s2.1-2.1 1.3-2.1c-.2 0-1 .8-1.7 1.7m154.9-1c.7.3 1.6.2 1.9-.1.4-.3-.2-.6-1.3-.5-1.1 0-1.4.3-.6.6M406.5 393c1 1.1 2 2 2.3 2s-.3-.9-1.3-2-2-2-2.3-2 .3.9 1.3 2m103.7 0c0 1.4.2 1.9.5 1.2.2-.6.2-1.8 0-2.5-.3-.6-.5-.1-.5 1.3m75.7 1.7-2.4 2.8 2.8-2.4c1.5-1.4 2.7-2.6 2.7-2.8 0-.8-.8-.1-3.1 2.4m314.9-1c.6.2 1.8.2 2.5 0 .6-.3.1-.5-1.3-.5s-1.9.2-1.2.5m-688.5 1c.9.2 2.3.2 3 0 .6-.3-.1-.5-1.8-.5-1.6 0-2.2.2-1.2.5m297.8 3.9c0 1.1.3 1.4.6.6.3-.7.2-1.6-.1-1.9-.3-.4-.6.2-.5 1.3m68.3 2.6-1.9 2.3 2.3-1.9c2.1-1.8 2.7-2.6 1.9-2.6-.2 0-1.2 1-2.3 2.2m-68.3 1.4c0 1.1.3 1.4.6.6.3-.7.2-1.6-.1-1.9-.3-.4-.6.2-.5 1.3m162.9.4c0 .5.7.7 1.5.4.8-.4 1.5-.8 1.5-1s-.7-.4-1.5-.4-1.5.4-1.5 1m-254 .4c0 .2.8 1 1.8 1.7 1.5 1.3 1.6 1.2.3-.4s-2.1-2.1-2.1-1.3m-39.5 2.6c1 1.1 2 2 2.3 2s-.3-.9-1.3-2-2-2-2.3-2 .3.9 1.3 2m233.4.7c-1.3 1.6-1.2 1.7.4.4.9-.7 1.7-1.5 1.7-1.7 0-.8-.8-.3-2.1 1.3M510.2 409c0 1.9.2 2.7.5 1.7.2-.9.2-2.5 0-3.5-.3-.9-.5-.1-.5 1.8m60.7-1.3c-1.3 1.6-1.2 1.7.4.4s2.1-2.1 1.3-2.1c-.2 0-1 .8-1.7 1.7M426.5 410c1 1.1 2 2 2.3 2s-.3-.9-1.3-2-2-2-2.3-2 .3.9 1.3 2m-40 2c1 1.1 2 2 2.3 2s-.3-.9-1.3-2-2-2-2.3-2 .3.9 1.3 2m177.9 1.2-1.9 2.3 2.3-1.9c2.1-1.8 2.7-2.6 1.9-2.6-.2 0-1.2 1-2.3 2.2m40.5.5-2.4 2.8 2.8-2.4c1.5-1.4 2.7-2.6 2.7-2.8 0-.8-.8-.1-3.1 2.4m-423.3-.2c-.9 2.6-.7 3.2.5 1.2.6-1 .9-2.1.6-2.3-.2-.3-.7.2-1.1 1.1m251.9 2.5c1 1.1 2 2 2.3 2s-.3-.9-1.3-2-2-2-2.3-2 .3.9 1.3 2m-41.5.4c0 .2.8 1 1.8 1.7 1.5 1.3 1.6 1.2.3-.4s-2.1-2.1-2.1-1.3m164.4 3.8-1.9 2.3 2.3-1.9c2.1-1.8 2.7-2.6 1.9-2.6-.2 0-1.2 1-2.3 2.2m40 1-1.9 2.3 2.3-1.9c1.2-1.1 2.2-2.1 2.2-2.3 0-.8-.8-.2-2.6 1.9M399 422.4c0 .2.8 1 1.8 1.7 1.5 1.3 1.6 1.2.3-.4s-2.1-2.1-2.1-1.3m150.9 3.3c-1.3 1.6-1.2 1.7.4.4s2.1-2.1 1.3-2.1c-.2 0-1 .8-1.7 1.7m40 1-2.4 2.8 2.8-2.4c1.5-1.4 2.7-2.6 2.7-2.8 0-.8-.8-.1-3.1 2.4M453 432.5c1.3 1.4 2.6 2.5 2.8 2.5.3 0-.5-1.1-1.8-2.5s-2.6-2.5-2.8-2.5c-.3 0 .5 1.1 1.8 2.5m-40.5 1.5c1 1.1 2 2 2.3 2s-.3-.9-1.3-2-2-2-2.3-2 .3.9 1.3 2m168.9.2-1.9 2.3 2.3-1.9c2.1-1.8 2.7-2.6 1.9-2.6-.2 0-1.2 1-2.3 2.2M458.5 437c1 1.1 2 2 2.3 2s-.3-.9-1.3-2-2-2-2.3-2 .3.9 1.3 2m77.9.2-1.9 2.3 2.3-1.9c2.1-1.8 2.7-2.6 1.9-2.6-.2 0-1.2 1-2.3 2.2M419 439.5c1.3 1.4 2.6 2.5 2.8 2.5.3 0-.5-1.1-1.8-2.5s-2.6-2.5-2.8-2.5c-.3 0 .5 1.1 1.8 2.5m-232 5c1.9 1.9 3.6 3.5 3.9 3.5s-1-1.6-2.9-3.5-3.6-3.5-3.9-3.5 1 1.6 2.9 3.5m237-1.1c0 .2.8 1 1.8 1.7 1.5 1.3 1.6 1.2.3-.4s-2.1-2.1-2.1-1.3m142.9 3.3-2.4 2.8 2.8-2.4c1.5-1.4 2.7-2.6 2.7-2.8 0-.8-.8-.1-3.1 2.4m71.2 2.9c0 1.1.3 1.4.6.6.3-.7.2-1.6-.1-1.9-.3-.4-.6.2-.5 1.3m-77.7 2.6-1.9 2.3 2.3-1.9c2.1-1.8 2.7-2.6 1.9-2.6-.2 0-1.2 1-2.3 2.2m-340.6-.5c.6.2 1.8.2 2.5 0 .6-.3.1-.5-1.3-.5s-1.9.2-1.2.5m-17 1c.7.3 1.6.2 1.9-.1.4-.3-.2-.6-1.3-.5-1.1 0-1.4.3-.6.6m7.5 0c.9.2 2.5.2 3.5 0 .9-.3.1-.5-1.8-.5s-2.7.2-1.7.5m144.8.9c0 1.1.3 1.4.6.6.3-.7.2-1.6-.1-1.9-.3-.4-.6.2-.5 1.3m-33 1c0 1.1.3 1.4.6.6.3-.7.2-1.6-.1-1.9-.3-.4-.6.2-.5 1.3m114.9-.2c0 .2.8 1 1.8 1.7 1.5 1.3 1.6 1.2.3-.4s-2.1-2.1-2.1-1.3m60.8 1.3c.7.3 1.6.2 1.9-.1.4-.3-.2-.6-1.3-.5-1.1 0-1.4.3-.6.6m54.6 3.5-2.9 3.3 3.3-2.9c3-2.8 3.7-3.6 2.9-3.6-.2 0-1.6 1.5-3.3 3.2M228 459c.6 1.1 1.3 2 1.6 2 .2 0 0-.9-.6-2s-1.3-2-1.6-2c-.2 0 0 .9.6 2m286 2.4c0 .2.8 1 1.8 1.7 1.5 1.3 1.6 1.2.3-.4s-2.1-2.1-2.1-1.3m-38.1 3.3-2.4 2.8 2.8-2.4c2.5-2.3 3.2-3.1 2.4-3.1-.2 0-1.4 1.2-2.8 2.7m-122.8-.1c0 1.1.3 1.4.6.6.3-.7.2-1.6-.1-1.9-.3-.4-.6.2-.5 1.3m-121.1.8c0 .2.8 1 1.8 1.7 1.5 1.3 1.6 1.2.3-.4s-2.1-2.1-2.1-1.3m69.2 2.6c0 1.9.2 2.7.5 1.7.2-.9.2-2.5 0-3.5-.3-.9-.5-.1-.5 1.8m216.8-2.6c0 .2.8 1 1.8 1.7 1.5 1.3 1.6 1.2.3-.4s-2.1-2.1-2.1-1.3m123.1 1.2c0 1.1.3 1.4.6.6.3-.7.2-1.6-.1-1.9-.3-.4-.6.2-.5 1.3M320.2 468c0 1.4.2 1.9.5 1.2.2-.6.2-1.8 0-2.5-.3-.6-.5-.1-.5 1.3m32 8c0 1.4.2 1.9.5 1.2.2-.6.2-1.8 0-2.5-.3-.6-.5-.1-.5 1.3m290.1 3c0 3 .2 4.3.4 2.7.2-1.5.2-3.9 0-5.5-.2-1.5-.4-.2-.4 2.8m-117.2.6c0 1.1.3 1.4.6.6.3-.7.2-1.6-.1-1.9-.3-.4-.6.2-.5 1.3m26.1 1.9c0 1.6.2 2.2.5 1.2.2-.9.2-2.3 0-3-.3-.6-.5.1-.5 1.8m-251.1.1c0 1.1.3 1.4.6.6.3-.7.2-1.6-.1-1.9-.3-.4-.6.2-.5 1.3m373.1 1.9c0 1.6.2 2.2.5 1.2.2-.9.2-2.3 0-3-.3-.6-.5.1-.5 1.8M352.3 489c0 2.5.2 3.5.4 2.2.2-1.2.2-3.2 0-4.5-.2-1.2-.4-.2-.4 2.3m290 1.5c0 3.3.2 4.5.4 2.7s.2-4.5 0-6-.4 0-.4 3.3m-174.2-1.9c0 1.1.3 1.4.6.6.3-.7.2-1.6-.1-1.9-.3-.4-.6.2-.5 1.3m-195.3 2.1c.7.3 1.6.2 1.9-.1.4-.3-.2-.6-1.3-.5-1.1 0-1.4.3-.6.6m5 1c.6.2 1.8.2 2.5 0 .6-.3.1-.5-1.3-.5s-1.9.2-1.2.5m20 0c.7.3 1.6.2 1.9-.1.4-.3-.2-.6-1.3-.5-1.1 0-1.4.3-.6.6M476 504.5c1.3 1.4 2.6 2.5 2.8 2.5.3 0-.5-1.1-1.8-2.5s-2.6-2.5-2.8-2.5c-.3 0 .5 1.1 1.8 2.5m39.4 1.7-2.9 3.3 3.3-2.9c3-2.8 3.7-3.6 2.9-3.6-.2 0-1.6 1.5-3.3 3.2m156.8-.2c0 1.4.2 1.9.5 1.2.2-.6.2-1.8 0-2.5-.3-.6-.5-.1-.5 1.3m-1.1 7.6c0 1.1.3 1.4.6.6.3-.7.2-1.6-.1-1.9-.3-.4-.6.2-.5 1.3m-176.3.1c1.2.2 3.2.2 4.5 0 1.2-.2.2-.4-2.3-.4s-3.5.2-2.2.4m43.6 6.5-1.9 2.3 2.3-1.9c1.2-1.1 2.2-2.1 2.2-2.3 0-.8-.8-.2-2.6 1.9m-80.4 3.3c1.3 1.4 2.6 2.5 2.8 2.5.3 0-.5-1.1-1.8-2.5s-2.6-2.5-2.8-2.5c-.3 0 .5 1.1 1.8 2.5m32.8 15.2c.7.3 1.6.2 1.9-.1.4-.3-.2-.6-1.3-.5-1.1 0-1.4.3-.6.6m11 0c.7.3 1.6.2 1.9-.1.4-.3-.2-.6-1.3-.5-1.1 0-1.4.3-.6.6m-209.4 9.5-1.9 2.3 2.3-1.9c1.2-1.1 2.2-2.1 2.2-2.3 0-.8-.8-.2-2.6 1.9m-7 8-1.9 2.3 2.3-1.9c2.1-1.8 2.7-2.6 1.9-2.6-.2 0-1.2 1-2.3 2.2m-9.4 10.3c-2.4 2.5-4.2 4.5-3.9 4.5s2.5-2 4.9-4.5 4.2-4.5 3.9-4.5-2.5 2-4.9 4.5m64 2.5c.6 1.1 1.3 2 1.6 2 .2 0 0-.9-.6-2s-1.3-2-1.6-2c-.2 0 0 .9.6 2m105.6-.5c-.9 2.6-.7 3.2.5 1.2.6-1 .9-2.1.6-2.3-.2-.3-.7.2-1.1 1.1m167.3 5.2c-1.3 1.6-1.2 1.7.4.4s2.1-2.1 1.3-2.1c-.2 0-1 .8-1.7 1.7m-350.5 6.5-1.9 2.3 2.3-1.9c1.2-1.1 2.2-2.1 2.2-2.3 0-.8-.8-.2-2.6 1.9m343 3-1.9 2.3 2.3-1.9c1.2-1.1 2.2-2.1 2.2-2.3 0-.8-.8-.2-2.6 1.9m-349 3-2.9 3.3 3.3-2.9c3-2.8 3.7-3.6 2.9-3.6-.2 0-1.6 1.5-3.3 3.2m137.6 3.3c3.5 3.6 6.7 6.5 6.9 6.5.3 0-2.4-2.9-5.9-6.5s-6.7-6.5-6.9-6.5c-.3 0 2.4 2.9 5.9 6.5m-147.1 5.2c-1.3 1.6-1.2 1.7.4.4.9-.7 1.7-1.5 1.7-1.7 0-.8-.8-.3-2.1 1.3m86.5 3.5-1.9 2.3 2.3-1.9c1.2-1.1 2.2-2.1 2.2-2.3 0-.8-.8-.2-2.6 1.9m257.5-.5c-1.3 1.6-1.2 1.7.4.4s2.1-2.1 1.3-2.1c-.2 0-1 .8-1.7 1.7m-350 2c-1.3 1.6-1.2 1.7.4.4.9-.7 1.7-1.5 1.7-1.7 0-.8-.8-.3-2.1 1.3m391 1c-1.3 1.6-1.2 1.7.4.4.9-.7 1.7-1.5 1.7-1.7 0-.8-.8-.3-2.1 1.3m-396 3c-1.3 1.6-1.2 1.7.4.4.9-.7 1.7-1.5 1.7-1.7 0-.8-.8-.3-2.1 1.3m89 1c-1.3 1.6-1.2 1.7.4.4s2.1-2.1 1.3-2.1c-.2 0-1 .8-1.7 1.7m40.6.3c1 1.1 2 2 2.3 2s-.3-.9-1.3-2-2-2-2.3-2 .3.9 1.3 2m258.4 4.7c-1.3 1.6-1.2 1.7.4.4.9-.7 1.7-1.5 1.7-1.7 0-.8-.8-.3-2.1 1.3M375 614.5c3 3 5.7 5.5 5.9 5.5.3 0-1.9-2.5-4.9-5.5s-5.7-5.5-5.9-5.5c-.3 0 1.9 2.5 4.9 5.5m242.5 1.7-4 4.3 4.3-4c2.3-2.1 4.2-4 4.2-4.2 0-.8-.9 0-4.5 3.9m-154.7 11.5c.7.3 1.6.2 1.9-.1.4-.3-.2-.6-1.3-.5-1.1 0-1.4.3-.6.6m19 4c.7.3 1.6.2 1.9-.1.4-.3-.2-.6-1.3-.5-1.1 0-1.4.3-.6.6m12.5 1c.9.2 2.3.2 3 0 .6-.3-.1-.5-1.8-.5-1.6 0-2.2.2-1.2.5m-15 31c.9.2 2.3.2 3 0 .6-.3-.1-.5-1.8-.5-1.6 0-2.2.2-1.2.5m35.5 0c.7.3 1.6.2 1.9-.1.4-.3-.2-.6-1.3-.5-1.1 0-1.4.3-.6.6m-21.1 1c1.8.2 5 .2 7 0 2.1-.2.7-.4-3.2-.4-3.8 0-5.5.2-3.8.4m-309.9 11c.7.3 1.6.2 1.9-.1.4-.3-.2-.6-1.3-.5-1.1 0-1.4.3-.6.6m-62.8.7c0 .2.8 1 1.8 1.7 1.5 1.3 1.6 1.2.3-.4s-2.1-2.1-2.1-1.3m5.7 4.7c.7.7 1.5 1 1.8.7s-.2-.9-1.2-1.2c-1.4-.6-1.5-.5-.6.5m31.1-.4c.7.3 1.6.2 1.9-.1.4-.3-.2-.6-1.3-.5-1.1 0-1.4.3-.6.6m-8 1c.6.2 1.8.2 2.5 0 .6-.3.1-.5-1.3-.5s-1.9.2-1.2.5m-16 1c1.2.2 3 .2 4 0 .9-.3-.1-.5-2.3-.4-2.2 0-3 .2-1.7.4"/><path fill="#BFBF40" d="M893.3 271.7c.9.2 2.5.2 3.5 0 .9-.3.1-.5-1.8-.5s-2.7.2-1.7.5m-35.5 8c.6.2 1.8.2 2.5 0 .6-.3.1-.5-1.3-.5s-1.9.2-1.2.5m-41 6c.7.3 1.6.2 1.9-.1.4-.3-.2-.6-1.3-.5-1.1 0-1.4.3-.6.6m-14.5 2c.9.2 2.3.2 3 0 .6-.3-.1-.5-1.8-.5-1.6 0-2.2.2-1.2.5m-8.5 1c.7.3 1.6.2 1.9-.1.4-.3-.2-.6-1.3-.5-1.1 0-1.4.3-.6.6m-63 9c.7.3 1.6.2 1.9-.1.4-.3-.2-.6-1.3-.5-1.1 0-1.4.3-.6.6m-29 4c.7.3 1.6.2 1.9-.1.4-.3-.2-.6-1.3-.5-1.1 0-1.4.3-.6.6m-13 2c.7.3 1.6.2 1.9-.1.4-.3-.2-.6-1.3-.5-1.1 0-1.4.3-.6.6m-203 4c.6.2 1.8.2 2.5 0 .6-.3.1-.5-1.3-.5s-1.9.2-1.2.5m144 4c.7.3 1.6.2 1.9-.1.4-.3-.2-.6-1.3-.5-1.1 0-1.4.3-.6.6m-14 2c.7.3 1.6.2 1.9-.1.4-.3-.2-.6-1.3-.5-1.1 0-1.4.3-.6.6m295.4 1.8c0 1.6.2 2.2.5 1.2.2-.9.2-2.3 0-3-.3-.6-.5.1-.5 1.8m-31 4.5c0 1.9.2 2.7.5 1.7.2-.9.2-2.5 0-3.5-.3-.9-.5-.1-.5 1.8M602 320c.8.5 2 1 2.5 1 .6 0 .3-.5-.5-1s-1.9-1-2.5-1c-.5 0-.3.5.5 1m244.3-.3c.9.2 2.3.2 3 0 .6-.3-.1-.5-1.8-.5-1.6 0-2.2.2-1.2.5m65.8 2.9c0 1.1.3 1.4.6.6.3-.7.2-1.6-.1-1.9-.3-.4-.6.2-.5 1.3m-548.3 11.1c.7.3 1.6.2 1.9-.1.4-.3-.2-.6-1.3-.5-1.1 0-1.4.3-.6.6m-20 2c.6.2 1.8.2 2.5 0 .6-.3.1-.5-1.3-.5s-1.9.2-1.2.5m278.2-.3c0 .2.7.7 1.6 1 .8.3 1.2.2.9-.4-.6-1-2.5-1.4-2.5-.6m-293.7 1.3c1.5.2 3.7.2 5 0 1.2-.2 0-.4-2.8-.4-2.7 0-3.8.2-2.2.4m-45.5 5c.7.3 1.6.2 1.9-.1.4-.3-.2-.6-1.3-.5-1.1 0-1.4.3-.6.6m350.7 3.3c1 1.1 2 2 2.3 2s-.3-.9-1.3-2-2-2-2.3-2 .3.9 1.3 2m-23.5 2.4c0 .2.8 1 1.8 1.7 1.5 1.3 1.6 1.2.3-.4s-2.1-2.1-2.1-1.3M439 351c-.9.6-1 1-.3 1 .6 0 1.5-.5 1.8-1 .8-1.2.4-1.2-1.5 0m114.7.1c.7.7 1.5 1 1.8.7s-.2-.9-1.2-1.2c-1.4-.6-1.5-.5-.6.5m-186.6 12.2c-1.3 2.1-1.2 2.1.5.5 1-1 1.6-2 1.3-2.2-.3-.3-1.1.5-1.8 1.7m213.9 4.1c0 .2.7.7 1.6 1 .8.3 1.2.2.9-.4-.6-1-2.5-1.4-2.5-.6m252.8 1.3c.6.2 1.8.2 2.5 0 .6-.3.1-.5-1.3-.5s-1.9.2-1.2.5m-69 15c.7.3 1.6.2 1.9-.1.4-.3-.2-.6-1.3-.5-1.1 0-1.4.3-.6.6m-7 1c.6.2 1.8.2 2.5 0 .6-.3.1-.5-1.3-.5s-1.9.2-1.2.5m126 10c.7.3 1.6.2 1.9-.1.4-.3-.2-.6-1.3-.5-1.1 0-1.4.3-.6.6m-677 1c.6.2 1.8.2 2.5 0 .6-.3.1-.5-1.3-.5s-1.9.2-1.2.5m660 4c.7.3 1.6.2 1.9-.1.4-.3-.2-.6-1.3-.5-1.1 0-1.4.3-.6.6M192.5 401c-.3.6.1.7.9.4 1.8-.7 2.1-1.4.7-1.4-.6 0-1.3.4-1.6 1m222.5-.6c0 .2.8 1 1.8 1.7 1.5 1.3 1.6 1.2.3-.4s-2.1-2.1-2.1-1.3m268.8.3c.6.2 1.8.2 2.5 0 .6-.3.1-.5-1.3-.5s-1.9.2-1.2.5M422 406.4c0 .2.8 1 1.8 1.7 1.5 1.3 1.6 1.2.3-.4s-2.1-2.1-2.1-1.3m-85.5 2.7c-.4.6-.5 1.2-.2 1.5.2.3.7-.2 1-1.1.7-1.7.1-2-.8-.4M561 416c-.8.5-1.2 1.2-.9 1.5.4.3 1.2-.1 1.9-1 1.4-1.7 1.1-1.9-1-.5m251.8-.3c.7.3 1.6.2 1.9-.1.4-.3-.2-.6-1.3-.5-1.1 0-1.4.3-.6.6M409 431c0 .5.5 1 1.1 1 .5 0 .7-.5.4-1-.3-.6-.8-1-1.1-1-.2 0-.4.4-.4 1m52.7 9.1c.7.7 1.5 1 1.8.7s-.2-.9-1.2-1.2c-1.4-.6-1.5-.5-.6.5m206.4 2.5c0 1.1.3 1.4.6.6.3-.7.2-1.6-.1-1.9-.3-.4-.6.2-.5 1.3m33.7 5.1c.7.3 1.6.2 1.9-.1.4-.3-.2-.6-1.3-.5-1.1 0-1.4.3-.6.6m-398.6 5.8c0 1.6.2 2.2.5 1.2.2-.9.2-2.3 0-3-.3-.6-.5.1-.5 1.8m335.9-.9c0 1.1.3 1.4.6.6.3-.7.2-1.6-.1-1.9-.3-.4-.6.2-.5 1.3m-433.3.1c.6.2 1.8.2 2.5 0 .6-.3.1-.5-1.3-.5s-1.9.2-1.2.5m465.4 4.3c0 1.9.2 2.7.5 1.7.2-.9.2-2.5 0-3.5-.3-.9-.5-.1-.5 1.8m-167.4-.3c.7.3 1.6.2 1.9-.1.4-.3-.2-.6-1.3-.5-1.1 0-1.4.3-.6.6m-62.8.7c0 .2.8 1 1.8 1.7 1.5 1.3 1.6 1.2.3-.4s-2.1-2.1-2.1-1.3m199.2 2.1c0 1.6.2 2.2.5 1.2.2-.9.2-2.3 0-3-.3-.6-.5.1-.5 1.8m-287.9 11c0 2.2.2 3 .4 1.7.2-1.2.2-3 0-4-.3-.9-.5.1-.4 2.3m319.8-.9c0 1.1.3 1.4.6.6.3-.7.2-1.6-.1-1.9-.3-.4-.6.2-.5 1.3m-352 4c0 1.1.3 1.4.6.6.3-.7.2-1.6-.1-1.9-.3-.4-.6.2-.5 1.3m123 3c0 1.1.3 1.4.6.6.3-.7.2-1.6-.1-1.9-.3-.4-.6.2-.5 1.3M300.2 478c0 1.4.2 1.9.5 1.2.2-.6.2-1.8 0-2.5-.3-.6-.5-.1-.5 1.3m52 18c0 1.9.2 2.7.5 1.7.2-.9.2-2.5 0-3.5-.3-.9-.5-.1-.5 1.8m-31.9 3.5c0 2.2.2 3 .4 1.7.2-1.2.2-3 0-4-.3-.9-.5.1-.4 2.3m82.5-2.8c.6.2 1.8.2 2.5 0 .6-.3.1-.5-1.3-.5s-1.9.2-1.2.5m269.5 3.8c0 2.2.2 3 .4 1.7.2-1.2.2-3 0-4-.3-.9-.5.1-.4 2.3m-352.2 5.1c0 1.1.3 1.4.6.6.3-.7.2-1.6-.1-1.9-.3-.4-.6.2-.5 1.3m320.4-.5c-.4.6-.5 1.2-.2 1.5.2.3.7-.2 1-1.1.7-1.7.1-2-.8-.4m-151.7 7.6c.7.3 1.6.2 1.9-.1.4-.3-.2-.6-1.3-.5-1.1 0-1.4.3-.6.6m15 0c.7.3 1.6.2 1.9-.1.4-.3-.2-.6-1.3-.5-1.1 0-1.4.3-.6.6m31.1 11c-1.3 1.6-1.2 1.7.4.4.9-.7 1.7-1.5 1.7-1.7 0-.8-.8-.3-2.1 1.3m57.9 3.5c.5.5 1.6.8 2.3.6.8-.3.3-.7-1-1.1-1.7-.4-2.1-.3-1.3.5m-129.7 1.4c0 1.1.3 1.4.6.6.3-.7.2-1.6-.1-1.9-.3-.4-.6.2-.5 1.3m31.2 10.1c.9.2 2.3.2 3 0 .6-.3-.1-.5-1.8-.5-1.6 0-2.2.2-1.2.5M367.1 550c0 .8.4 2.2.9 3 1.2 1.8 1.2.2 0-2.5-.6-1.3-.9-1.5-.9-.5m-85.2 10.7c-1.3 1.6-1.2 1.7.4.4s2.1-2.1 1.3-2.1c-.2 0-1 .8-1.7 1.7m54.1.2c0 .6.4 1.3 1 1.6s.7-.1.4-.9c-.7-1.8-1.4-2.1-1.4-.7m112.1 2.7c0 1.1.3 1.4.6.6.3-.7.2-1.6-.1-1.9-.3-.4-.6.2-.5 1.3m206.5 1.1c-.6 1.4-.5 1.5.5.6.7-.7 1-1.5.7-1.8s-.9.2-1.2 1.2m-303 22.6c.3 1 .9 1.5 1.2 1.2s0-1.1-.7-1.8c-1-.9-1.1-.8-.5.6m246.3 4.4-2.4 2.8 2.8-2.4c1.5-1.4 2.7-2.6 2.7-2.8 0-.8-.8-.1-3.1 2.4m-182.8 15.7c.2.2 1.5.9 2.9 1.5 2.4 1.1 2.4 1.1.6-.3-1.6-1.3-4.9-2.4-3.5-1.2m161.3 1.2c-1.8 1.4-1.8 1.5.4.4 1.2-.6 2.2-1.3 2.2-1.5 0-.8-.5-.6-2.6 1.1m-261.5 3.1c-1.3 1.6-1.2 1.7.4.4s2.1-2.1 1.3-2.1c-.2 0-1 .8-1.7 1.7m67.1 8.7c0 .2.8 1 1.8 1.7 1.5 1.3 1.6 1.2.3-.4s-2.1-2.1-2.1-1.3m87.8 9.3c.7.3 1.6.2 1.9-.1.4-.3-.2-.6-1.3-.5-1.1 0-1.4.3-.6.6m20 3c.6.2 1.8.2 2.5 0 .6-.3.1-.5-1.3-.5s-1.9.2-1.2.5m-362.5 24c.9.2 2.3.2 3 0 .6-.3-.1-.5-1.8-.5-1.6 0-2.2.2-1.2.5m347.5 6c.7.3 1.6.2 1.9-.1.4-.3-.2-.6-1.3-.5-1.1 0-1.4.3-.6.6m46 0c.7.3 1.6.2 1.9-.1.4-.3-.2-.6-1.3-.5-1.1 0-1.4.3-.6.6m-342 14c.7.3 1.6.2 1.9-.1.4-.3-.2-.6-1.3-.5-1.1 0-1.4.3-.6.6m-10 2c.7.3 1.6.2 1.9-.1.4-.3-.2-.6-1.3-.5-1.1 0-1.4.3-.6.6"/><path fill="#808040" d="M691.8 303.7c.7.3 1.6.2 1.9-.1.4-.3-.2-.6-1.3-.5-1.1 0-1.4.3-.6.6M352.1 465.6c0 1.1.3 1.4.6.6.3-.7.2-1.6-.1-1.9-.3-.4-.6.2-.5 1.3"/></svg>